G04 #@! TF.GenerationSoftware,KiCad,Pcbnew,(5.1.9)-1*
G04 #@! TF.CreationDate,2021-04-03T11:00:13-07:00*
G04 #@! TF.ProjectId,vsps_power,76737073-5f70-46f7-9765-722e6b696361,rev?*
G04 #@! TF.SameCoordinates,Original*
G04 #@! TF.FileFunction,Copper,L1,Top*
G04 #@! TF.FilePolarity,Positive*
%FSLAX46Y46*%
G04 Gerber Fmt 4.6, Leading zero omitted, Abs format (unit mm)*
G04 Created by KiCad (PCBNEW (5.1.9)-1) date 2021-04-03 11:00:13*
%MOMM*%
%LPD*%
G01*
G04 APERTURE LIST*
G04 #@! TA.AperFunction,ComponentPad*
%ADD10C,6.400000*%
G04 #@! TD*
G04 #@! TA.AperFunction,ComponentPad*
%ADD11C,4.064000*%
G04 #@! TD*
G04 #@! TA.AperFunction,ComponentPad*
%ADD12C,3.100000*%
G04 #@! TD*
G04 #@! TA.AperFunction,ComponentPad*
%ADD13C,2.100000*%
G04 #@! TD*
G04 #@! TA.AperFunction,ComponentPad*
%ADD14C,2.400000*%
G04 #@! TD*
G04 #@! TA.AperFunction,ComponentPad*
%ADD15R,2.400000X2.400000*%
G04 #@! TD*
G04 #@! TA.AperFunction,ComponentPad*
%ADD16C,2.000000*%
G04 #@! TD*
G04 #@! TA.AperFunction,Conductor*
%ADD17C,2.000000*%
G04 #@! TD*
G04 #@! TA.AperFunction,Conductor*
%ADD18C,0.254000*%
G04 #@! TD*
G04 #@! TA.AperFunction,Conductor*
%ADD19C,0.100000*%
G04 #@! TD*
G04 APERTURE END LIST*
D10*
X130000000Y-135000000D03*
X130000000Y-70000000D03*
X72500000Y-135000000D03*
X72500000Y-70000000D03*
D11*
X108575000Y-123140000D03*
X99050000Y-123140000D03*
X89525000Y-123140000D03*
X80000000Y-123140000D03*
X108575000Y-82500000D03*
X99050000Y-82500000D03*
X89525000Y-82500000D03*
X80000000Y-82500000D03*
G04 #@! TA.AperFunction,ComponentPad*
G36*
G01*
X62699999Y-117950000D02*
X65300001Y-117950000D01*
G75*
G02*
X65550000Y-118199999I0J-249999D01*
G01*
X65550000Y-120800001D01*
G75*
G02*
X65300001Y-121050000I-249999J0D01*
G01*
X62699999Y-121050000D01*
G75*
G02*
X62450000Y-120800001I0J249999D01*
G01*
X62450000Y-118199999D01*
G75*
G02*
X62699999Y-117950000I249999J0D01*
G01*
G37*
G04 #@! TD.AperFunction*
D12*
X64000000Y-125500000D03*
X64000000Y-131500000D03*
D13*
X139500000Y-107450000D03*
X139500000Y-102850000D03*
G04 #@! TA.AperFunction,ComponentPad*
G36*
G01*
X138699999Y-97200000D02*
X140300001Y-97200000D01*
G75*
G02*
X140550000Y-97449999I0J-249999D01*
G01*
X140550000Y-99050001D01*
G75*
G02*
X140300001Y-99300000I-249999J0D01*
G01*
X138699999Y-99300000D01*
G75*
G02*
X138450000Y-99050001I0J249999D01*
G01*
X138450000Y-97449999D01*
G75*
G02*
X138699999Y-97200000I249999J0D01*
G01*
G37*
G04 #@! TD.AperFunction*
D14*
X122000000Y-122240000D03*
D15*
X132900000Y-122240000D03*
X122000000Y-117160000D03*
D14*
X132900000Y-117160000D03*
X132900000Y-112080000D03*
D15*
X122000000Y-112080000D03*
D14*
X122000000Y-107000000D03*
D15*
X132900000Y-107000000D03*
D14*
X122000000Y-98160000D03*
D15*
X132900000Y-98160000D03*
X122000000Y-93080000D03*
D14*
X132900000Y-93080000D03*
X132900000Y-88000000D03*
D15*
X122000000Y-88000000D03*
D14*
X122000000Y-82920000D03*
D15*
X132900000Y-82920000D03*
D16*
X69000000Y-93000000D03*
X64000000Y-93000000D03*
X64000000Y-108000000D03*
X69000000Y-108000000D03*
G04 #@! TA.AperFunction,ComponentPad*
G36*
G01*
X65300001Y-84300000D02*
X62699999Y-84300000D01*
G75*
G02*
X62450000Y-84050001I0J249999D01*
G01*
X62450000Y-81449999D01*
G75*
G02*
X62699999Y-81200000I249999J0D01*
G01*
X65300001Y-81200000D01*
G75*
G02*
X65550000Y-81449999I0J-249999D01*
G01*
X65550000Y-84050001D01*
G75*
G02*
X65300001Y-84300000I-249999J0D01*
G01*
G37*
G04 #@! TD.AperFunction*
D12*
X64000000Y-76750000D03*
D17*
X64000000Y-93000000D02*
X69000000Y-93000000D01*
X64000000Y-82750000D02*
X64000000Y-93000000D01*
X64000000Y-119500000D02*
X64000000Y-108000000D01*
X64000000Y-108000000D02*
X69000000Y-108000000D01*
X89525000Y-82500000D02*
X79025000Y-93000000D01*
X65196210Y-125500000D02*
X64000000Y-125500000D01*
X79025000Y-111671210D02*
X65196210Y-125500000D01*
X79025000Y-93000000D02*
X79025000Y-111671210D01*
X89525000Y-82500000D02*
X99050000Y-82500000D01*
X74250000Y-76750000D02*
X80000000Y-82500000D01*
X64000000Y-76750000D02*
X74250000Y-76750000D01*
X103542999Y-77467999D02*
X108575000Y-82500000D01*
X85032001Y-77467999D02*
X103542999Y-77467999D01*
X80000000Y-82500000D02*
X85032001Y-77467999D01*
X114505000Y-98160000D02*
X122000000Y-98160000D01*
X89525000Y-123140000D02*
X114505000Y-98160000D01*
X115140000Y-88000000D02*
X122000000Y-88000000D01*
X80000000Y-123140000D02*
X115140000Y-88000000D01*
X121100000Y-123140000D02*
X122000000Y-122240000D01*
X108575000Y-123140000D02*
X121100000Y-123140000D01*
X110110000Y-112080000D02*
X122000000Y-112080000D01*
X99050000Y-123140000D02*
X110110000Y-112080000D01*
D18*
X120210498Y-115715820D02*
X120174188Y-115835518D01*
X120161928Y-115960000D01*
X120165000Y-116874250D01*
X120323750Y-117033000D01*
X121873000Y-117033000D01*
X121873000Y-117013000D01*
X122127000Y-117013000D01*
X122127000Y-117033000D01*
X123676250Y-117033000D01*
X123835000Y-116874250D01*
X123838072Y-115960000D01*
X123825812Y-115835518D01*
X123789502Y-115715820D01*
X123742026Y-115627000D01*
X124873000Y-115627000D01*
X124873000Y-125373000D01*
X118627000Y-125373000D01*
X118627000Y-123517980D01*
X120901626Y-123517980D01*
X121021514Y-123802836D01*
X121345210Y-123963699D01*
X121694069Y-124058322D01*
X122054684Y-124083067D01*
X122413198Y-124036985D01*
X122755833Y-123921846D01*
X122978486Y-123802836D01*
X123098374Y-123517980D01*
X122000000Y-122419605D01*
X120901626Y-123517980D01*
X118627000Y-123517980D01*
X118627000Y-122294684D01*
X120156933Y-122294684D01*
X120203015Y-122653198D01*
X120318154Y-122995833D01*
X120437164Y-123218486D01*
X120722020Y-123338374D01*
X121820395Y-122240000D01*
X122179605Y-122240000D01*
X123277980Y-123338374D01*
X123562836Y-123218486D01*
X123723699Y-122894790D01*
X123818322Y-122545931D01*
X123843067Y-122185316D01*
X123796985Y-121826802D01*
X123681846Y-121484167D01*
X123562836Y-121261514D01*
X123277980Y-121141626D01*
X122179605Y-122240000D01*
X121820395Y-122240000D01*
X120722020Y-121141626D01*
X120437164Y-121261514D01*
X120276301Y-121585210D01*
X120181678Y-121934069D01*
X120156933Y-122294684D01*
X118627000Y-122294684D01*
X118627000Y-120962020D01*
X120901626Y-120962020D01*
X122000000Y-122060395D01*
X123098374Y-120962020D01*
X122978486Y-120677164D01*
X122654790Y-120516301D01*
X122305931Y-120421678D01*
X121945316Y-120396933D01*
X121586802Y-120443015D01*
X121244167Y-120558154D01*
X121021514Y-120677164D01*
X120901626Y-120962020D01*
X118627000Y-120962020D01*
X118627000Y-118360000D01*
X120161928Y-118360000D01*
X120174188Y-118484482D01*
X120210498Y-118604180D01*
X120269463Y-118714494D01*
X120348815Y-118811185D01*
X120445506Y-118890537D01*
X120555820Y-118949502D01*
X120675518Y-118985812D01*
X120800000Y-118998072D01*
X121714250Y-118995000D01*
X121873000Y-118836250D01*
X121873000Y-117287000D01*
X122127000Y-117287000D01*
X122127000Y-118836250D01*
X122285750Y-118995000D01*
X123200000Y-118998072D01*
X123324482Y-118985812D01*
X123444180Y-118949502D01*
X123554494Y-118890537D01*
X123651185Y-118811185D01*
X123730537Y-118714494D01*
X123789502Y-118604180D01*
X123825812Y-118484482D01*
X123838072Y-118360000D01*
X123835000Y-117445750D01*
X123676250Y-117287000D01*
X122127000Y-117287000D01*
X121873000Y-117287000D01*
X120323750Y-117287000D01*
X120165000Y-117445750D01*
X120161928Y-118360000D01*
X118627000Y-118360000D01*
X118627000Y-115627000D01*
X120257974Y-115627000D01*
X120210498Y-115715820D01*
G04 #@! TA.AperFunction,Conductor*
D19*
G36*
X120210498Y-115715820D02*
G01*
X120174188Y-115835518D01*
X120161928Y-115960000D01*
X120165000Y-116874250D01*
X120323750Y-117033000D01*
X121873000Y-117033000D01*
X121873000Y-117013000D01*
X122127000Y-117013000D01*
X122127000Y-117033000D01*
X123676250Y-117033000D01*
X123835000Y-116874250D01*
X123838072Y-115960000D01*
X123825812Y-115835518D01*
X123789502Y-115715820D01*
X123742026Y-115627000D01*
X124873000Y-115627000D01*
X124873000Y-125373000D01*
X118627000Y-125373000D01*
X118627000Y-123517980D01*
X120901626Y-123517980D01*
X121021514Y-123802836D01*
X121345210Y-123963699D01*
X121694069Y-124058322D01*
X122054684Y-124083067D01*
X122413198Y-124036985D01*
X122755833Y-123921846D01*
X122978486Y-123802836D01*
X123098374Y-123517980D01*
X122000000Y-122419605D01*
X120901626Y-123517980D01*
X118627000Y-123517980D01*
X118627000Y-122294684D01*
X120156933Y-122294684D01*
X120203015Y-122653198D01*
X120318154Y-122995833D01*
X120437164Y-123218486D01*
X120722020Y-123338374D01*
X121820395Y-122240000D01*
X122179605Y-122240000D01*
X123277980Y-123338374D01*
X123562836Y-123218486D01*
X123723699Y-122894790D01*
X123818322Y-122545931D01*
X123843067Y-122185316D01*
X123796985Y-121826802D01*
X123681846Y-121484167D01*
X123562836Y-121261514D01*
X123277980Y-121141626D01*
X122179605Y-122240000D01*
X121820395Y-122240000D01*
X120722020Y-121141626D01*
X120437164Y-121261514D01*
X120276301Y-121585210D01*
X120181678Y-121934069D01*
X120156933Y-122294684D01*
X118627000Y-122294684D01*
X118627000Y-120962020D01*
X120901626Y-120962020D01*
X122000000Y-122060395D01*
X123098374Y-120962020D01*
X122978486Y-120677164D01*
X122654790Y-120516301D01*
X122305931Y-120421678D01*
X121945316Y-120396933D01*
X121586802Y-120443015D01*
X121244167Y-120558154D01*
X121021514Y-120677164D01*
X120901626Y-120962020D01*
X118627000Y-120962020D01*
X118627000Y-118360000D01*
X120161928Y-118360000D01*
X120174188Y-118484482D01*
X120210498Y-118604180D01*
X120269463Y-118714494D01*
X120348815Y-118811185D01*
X120445506Y-118890537D01*
X120555820Y-118949502D01*
X120675518Y-118985812D01*
X120800000Y-118998072D01*
X121714250Y-118995000D01*
X121873000Y-118836250D01*
X121873000Y-117287000D01*
X122127000Y-117287000D01*
X122127000Y-118836250D01*
X122285750Y-118995000D01*
X123200000Y-118998072D01*
X123324482Y-118985812D01*
X123444180Y-118949502D01*
X123554494Y-118890537D01*
X123651185Y-118811185D01*
X123730537Y-118714494D01*
X123789502Y-118604180D01*
X123825812Y-118484482D01*
X123838072Y-118360000D01*
X123835000Y-117445750D01*
X123676250Y-117287000D01*
X122127000Y-117287000D01*
X121873000Y-117287000D01*
X120323750Y-117287000D01*
X120165000Y-117445750D01*
X120161928Y-118360000D01*
X118627000Y-118360000D01*
X118627000Y-115627000D01*
X120257974Y-115627000D01*
X120210498Y-115715820D01*
G37*
G04 #@! TD.AperFunction*
D18*
X141840000Y-100373000D02*
X129627000Y-100373000D01*
X129627000Y-99360000D01*
X131061928Y-99360000D01*
X131074188Y-99484482D01*
X131110498Y-99604180D01*
X131169463Y-99714494D01*
X131248815Y-99811185D01*
X131345506Y-99890537D01*
X131455820Y-99949502D01*
X131575518Y-99985812D01*
X131700000Y-99998072D01*
X132614250Y-99995000D01*
X132773000Y-99836250D01*
X132773000Y-98287000D01*
X133027000Y-98287000D01*
X133027000Y-99836250D01*
X133185750Y-99995000D01*
X134100000Y-99998072D01*
X134224482Y-99985812D01*
X134344180Y-99949502D01*
X134454494Y-99890537D01*
X134551185Y-99811185D01*
X134630537Y-99714494D01*
X134689502Y-99604180D01*
X134725812Y-99484482D01*
X134738072Y-99360000D01*
X134737871Y-99300000D01*
X137811928Y-99300000D01*
X137824188Y-99424482D01*
X137860498Y-99544180D01*
X137919463Y-99654494D01*
X137998815Y-99751185D01*
X138095506Y-99830537D01*
X138205820Y-99889502D01*
X138325518Y-99925812D01*
X138450000Y-99938072D01*
X139214250Y-99935000D01*
X139373000Y-99776250D01*
X139373000Y-98377000D01*
X139627000Y-98377000D01*
X139627000Y-99776250D01*
X139785750Y-99935000D01*
X140550000Y-99938072D01*
X140674482Y-99925812D01*
X140794180Y-99889502D01*
X140904494Y-99830537D01*
X141001185Y-99751185D01*
X141080537Y-99654494D01*
X141139502Y-99544180D01*
X141175812Y-99424482D01*
X141188072Y-99300000D01*
X141185000Y-98535750D01*
X141026250Y-98377000D01*
X139627000Y-98377000D01*
X139373000Y-98377000D01*
X137973750Y-98377000D01*
X137815000Y-98535750D01*
X137811928Y-99300000D01*
X134737871Y-99300000D01*
X134735000Y-98445750D01*
X134576250Y-98287000D01*
X133027000Y-98287000D01*
X132773000Y-98287000D01*
X131223750Y-98287000D01*
X131065000Y-98445750D01*
X131061928Y-99360000D01*
X129627000Y-99360000D01*
X129627000Y-96960000D01*
X131061928Y-96960000D01*
X131065000Y-97874250D01*
X131223750Y-98033000D01*
X132773000Y-98033000D01*
X132773000Y-96483750D01*
X133027000Y-96483750D01*
X133027000Y-98033000D01*
X134576250Y-98033000D01*
X134735000Y-97874250D01*
X134737265Y-97200000D01*
X137811928Y-97200000D01*
X137815000Y-97964250D01*
X137973750Y-98123000D01*
X139373000Y-98123000D01*
X139373000Y-96723750D01*
X139627000Y-96723750D01*
X139627000Y-98123000D01*
X141026250Y-98123000D01*
X141185000Y-97964250D01*
X141188072Y-97200000D01*
X141175812Y-97075518D01*
X141139502Y-96955820D01*
X141080537Y-96845506D01*
X141001185Y-96748815D01*
X140904494Y-96669463D01*
X140794180Y-96610498D01*
X140674482Y-96574188D01*
X140550000Y-96561928D01*
X139785750Y-96565000D01*
X139627000Y-96723750D01*
X139373000Y-96723750D01*
X139214250Y-96565000D01*
X138450000Y-96561928D01*
X138325518Y-96574188D01*
X138205820Y-96610498D01*
X138095506Y-96669463D01*
X137998815Y-96748815D01*
X137919463Y-96845506D01*
X137860498Y-96955820D01*
X137824188Y-97075518D01*
X137811928Y-97200000D01*
X134737265Y-97200000D01*
X134738072Y-96960000D01*
X134725812Y-96835518D01*
X134689502Y-96715820D01*
X134630537Y-96605506D01*
X134551185Y-96508815D01*
X134454494Y-96429463D01*
X134344180Y-96370498D01*
X134224482Y-96334188D01*
X134100000Y-96321928D01*
X133185750Y-96325000D01*
X133027000Y-96483750D01*
X132773000Y-96483750D01*
X132614250Y-96325000D01*
X131700000Y-96321928D01*
X131575518Y-96334188D01*
X131455820Y-96370498D01*
X131345506Y-96429463D01*
X131248815Y-96508815D01*
X131169463Y-96605506D01*
X131110498Y-96715820D01*
X131074188Y-96835518D01*
X131061928Y-96960000D01*
X129627000Y-96960000D01*
X129627000Y-92899268D01*
X131065000Y-92899268D01*
X131065000Y-93260732D01*
X131135518Y-93615250D01*
X131273844Y-93949199D01*
X131474662Y-94249744D01*
X131730256Y-94505338D01*
X132030801Y-94706156D01*
X132364750Y-94844482D01*
X132719268Y-94915000D01*
X133080732Y-94915000D01*
X133435250Y-94844482D01*
X133769199Y-94706156D01*
X134069744Y-94505338D01*
X134325338Y-94249744D01*
X134526156Y-93949199D01*
X134664482Y-93615250D01*
X134735000Y-93260732D01*
X134735000Y-92899268D01*
X134664482Y-92544750D01*
X134526156Y-92210801D01*
X134325338Y-91910256D01*
X134069744Y-91654662D01*
X133769199Y-91453844D01*
X133435250Y-91315518D01*
X133080732Y-91245000D01*
X132719268Y-91245000D01*
X132364750Y-91315518D01*
X132030801Y-91453844D01*
X131730256Y-91654662D01*
X131474662Y-91910256D01*
X131273844Y-92210801D01*
X131135518Y-92544750D01*
X131065000Y-92899268D01*
X129627000Y-92899268D01*
X129627000Y-87819268D01*
X131065000Y-87819268D01*
X131065000Y-88180732D01*
X131135518Y-88535250D01*
X131273844Y-88869199D01*
X131474662Y-89169744D01*
X131730256Y-89425338D01*
X132030801Y-89626156D01*
X132364750Y-89764482D01*
X132719268Y-89835000D01*
X133080732Y-89835000D01*
X133435250Y-89764482D01*
X133769199Y-89626156D01*
X134069744Y-89425338D01*
X134325338Y-89169744D01*
X134526156Y-88869199D01*
X134664482Y-88535250D01*
X134735000Y-88180732D01*
X134735000Y-87819268D01*
X134664482Y-87464750D01*
X134526156Y-87130801D01*
X134325338Y-86830256D01*
X134069744Y-86574662D01*
X133769199Y-86373844D01*
X133435250Y-86235518D01*
X133080732Y-86165000D01*
X132719268Y-86165000D01*
X132364750Y-86235518D01*
X132030801Y-86373844D01*
X131730256Y-86574662D01*
X131474662Y-86830256D01*
X131273844Y-87130801D01*
X131135518Y-87464750D01*
X131065000Y-87819268D01*
X129627000Y-87819268D01*
X129627000Y-84120000D01*
X131061928Y-84120000D01*
X131074188Y-84244482D01*
X131110498Y-84364180D01*
X131169463Y-84474494D01*
X131248815Y-84571185D01*
X131345506Y-84650537D01*
X131455820Y-84709502D01*
X131575518Y-84745812D01*
X131700000Y-84758072D01*
X132614250Y-84755000D01*
X132773000Y-84596250D01*
X132773000Y-83047000D01*
X133027000Y-83047000D01*
X133027000Y-84596250D01*
X133185750Y-84755000D01*
X134100000Y-84758072D01*
X134224482Y-84745812D01*
X134344180Y-84709502D01*
X134454494Y-84650537D01*
X134551185Y-84571185D01*
X134630537Y-84474494D01*
X134689502Y-84364180D01*
X134725812Y-84244482D01*
X134738072Y-84120000D01*
X134735000Y-83205750D01*
X134576250Y-83047000D01*
X133027000Y-83047000D01*
X132773000Y-83047000D01*
X131223750Y-83047000D01*
X131065000Y-83205750D01*
X131061928Y-84120000D01*
X129627000Y-84120000D01*
X129627000Y-81720000D01*
X131061928Y-81720000D01*
X131065000Y-82634250D01*
X131223750Y-82793000D01*
X132773000Y-82793000D01*
X132773000Y-81243750D01*
X133027000Y-81243750D01*
X133027000Y-82793000D01*
X134576250Y-82793000D01*
X134735000Y-82634250D01*
X134738072Y-81720000D01*
X134725812Y-81595518D01*
X134689502Y-81475820D01*
X134630537Y-81365506D01*
X134551185Y-81268815D01*
X134454494Y-81189463D01*
X134344180Y-81130498D01*
X134224482Y-81094188D01*
X134100000Y-81081928D01*
X133185750Y-81085000D01*
X133027000Y-81243750D01*
X132773000Y-81243750D01*
X132614250Y-81085000D01*
X131700000Y-81081928D01*
X131575518Y-81094188D01*
X131455820Y-81130498D01*
X131345506Y-81189463D01*
X131248815Y-81268815D01*
X131169463Y-81365506D01*
X131110498Y-81475820D01*
X131074188Y-81595518D01*
X131061928Y-81720000D01*
X129627000Y-81720000D01*
X129627000Y-80627000D01*
X141840000Y-80627000D01*
X141840000Y-100373000D01*
G04 #@! TA.AperFunction,Conductor*
D19*
G36*
X141840000Y-100373000D02*
G01*
X129627000Y-100373000D01*
X129627000Y-99360000D01*
X131061928Y-99360000D01*
X131074188Y-99484482D01*
X131110498Y-99604180D01*
X131169463Y-99714494D01*
X131248815Y-99811185D01*
X131345506Y-99890537D01*
X131455820Y-99949502D01*
X131575518Y-99985812D01*
X131700000Y-99998072D01*
X132614250Y-99995000D01*
X132773000Y-99836250D01*
X132773000Y-98287000D01*
X133027000Y-98287000D01*
X133027000Y-99836250D01*
X133185750Y-99995000D01*
X134100000Y-99998072D01*
X134224482Y-99985812D01*
X134344180Y-99949502D01*
X134454494Y-99890537D01*
X134551185Y-99811185D01*
X134630537Y-99714494D01*
X134689502Y-99604180D01*
X134725812Y-99484482D01*
X134738072Y-99360000D01*
X134737871Y-99300000D01*
X137811928Y-99300000D01*
X137824188Y-99424482D01*
X137860498Y-99544180D01*
X137919463Y-99654494D01*
X137998815Y-99751185D01*
X138095506Y-99830537D01*
X138205820Y-99889502D01*
X138325518Y-99925812D01*
X138450000Y-99938072D01*
X139214250Y-99935000D01*
X139373000Y-99776250D01*
X139373000Y-98377000D01*
X139627000Y-98377000D01*
X139627000Y-99776250D01*
X139785750Y-99935000D01*
X140550000Y-99938072D01*
X140674482Y-99925812D01*
X140794180Y-99889502D01*
X140904494Y-99830537D01*
X141001185Y-99751185D01*
X141080537Y-99654494D01*
X141139502Y-99544180D01*
X141175812Y-99424482D01*
X141188072Y-99300000D01*
X141185000Y-98535750D01*
X141026250Y-98377000D01*
X139627000Y-98377000D01*
X139373000Y-98377000D01*
X137973750Y-98377000D01*
X137815000Y-98535750D01*
X137811928Y-99300000D01*
X134737871Y-99300000D01*
X134735000Y-98445750D01*
X134576250Y-98287000D01*
X133027000Y-98287000D01*
X132773000Y-98287000D01*
X131223750Y-98287000D01*
X131065000Y-98445750D01*
X131061928Y-99360000D01*
X129627000Y-99360000D01*
X129627000Y-96960000D01*
X131061928Y-96960000D01*
X131065000Y-97874250D01*
X131223750Y-98033000D01*
X132773000Y-98033000D01*
X132773000Y-96483750D01*
X133027000Y-96483750D01*
X133027000Y-98033000D01*
X134576250Y-98033000D01*
X134735000Y-97874250D01*
X134737265Y-97200000D01*
X137811928Y-97200000D01*
X137815000Y-97964250D01*
X137973750Y-98123000D01*
X139373000Y-98123000D01*
X139373000Y-96723750D01*
X139627000Y-96723750D01*
X139627000Y-98123000D01*
X141026250Y-98123000D01*
X141185000Y-97964250D01*
X141188072Y-97200000D01*
X141175812Y-97075518D01*
X141139502Y-96955820D01*
X141080537Y-96845506D01*
X141001185Y-96748815D01*
X140904494Y-96669463D01*
X140794180Y-96610498D01*
X140674482Y-96574188D01*
X140550000Y-96561928D01*
X139785750Y-96565000D01*
X139627000Y-96723750D01*
X139373000Y-96723750D01*
X139214250Y-96565000D01*
X138450000Y-96561928D01*
X138325518Y-96574188D01*
X138205820Y-96610498D01*
X138095506Y-96669463D01*
X137998815Y-96748815D01*
X137919463Y-96845506D01*
X137860498Y-96955820D01*
X137824188Y-97075518D01*
X137811928Y-97200000D01*
X134737265Y-97200000D01*
X134738072Y-96960000D01*
X134725812Y-96835518D01*
X134689502Y-96715820D01*
X134630537Y-96605506D01*
X134551185Y-96508815D01*
X134454494Y-96429463D01*
X134344180Y-96370498D01*
X134224482Y-96334188D01*
X134100000Y-96321928D01*
X133185750Y-96325000D01*
X133027000Y-96483750D01*
X132773000Y-96483750D01*
X132614250Y-96325000D01*
X131700000Y-96321928D01*
X131575518Y-96334188D01*
X131455820Y-96370498D01*
X131345506Y-96429463D01*
X131248815Y-96508815D01*
X131169463Y-96605506D01*
X131110498Y-96715820D01*
X131074188Y-96835518D01*
X131061928Y-96960000D01*
X129627000Y-96960000D01*
X129627000Y-92899268D01*
X131065000Y-92899268D01*
X131065000Y-93260732D01*
X131135518Y-93615250D01*
X131273844Y-93949199D01*
X131474662Y-94249744D01*
X131730256Y-94505338D01*
X132030801Y-94706156D01*
X132364750Y-94844482D01*
X132719268Y-94915000D01*
X133080732Y-94915000D01*
X133435250Y-94844482D01*
X133769199Y-94706156D01*
X134069744Y-94505338D01*
X134325338Y-94249744D01*
X134526156Y-93949199D01*
X134664482Y-93615250D01*
X134735000Y-93260732D01*
X134735000Y-92899268D01*
X134664482Y-92544750D01*
X134526156Y-92210801D01*
X134325338Y-91910256D01*
X134069744Y-91654662D01*
X133769199Y-91453844D01*
X133435250Y-91315518D01*
X133080732Y-91245000D01*
X132719268Y-91245000D01*
X132364750Y-91315518D01*
X132030801Y-91453844D01*
X131730256Y-91654662D01*
X131474662Y-91910256D01*
X131273844Y-92210801D01*
X131135518Y-92544750D01*
X131065000Y-92899268D01*
X129627000Y-92899268D01*
X129627000Y-87819268D01*
X131065000Y-87819268D01*
X131065000Y-88180732D01*
X131135518Y-88535250D01*
X131273844Y-88869199D01*
X131474662Y-89169744D01*
X131730256Y-89425338D01*
X132030801Y-89626156D01*
X132364750Y-89764482D01*
X132719268Y-89835000D01*
X133080732Y-89835000D01*
X133435250Y-89764482D01*
X133769199Y-89626156D01*
X134069744Y-89425338D01*
X134325338Y-89169744D01*
X134526156Y-88869199D01*
X134664482Y-88535250D01*
X134735000Y-88180732D01*
X134735000Y-87819268D01*
X134664482Y-87464750D01*
X134526156Y-87130801D01*
X134325338Y-86830256D01*
X134069744Y-86574662D01*
X133769199Y-86373844D01*
X133435250Y-86235518D01*
X133080732Y-86165000D01*
X132719268Y-86165000D01*
X132364750Y-86235518D01*
X132030801Y-86373844D01*
X131730256Y-86574662D01*
X131474662Y-86830256D01*
X131273844Y-87130801D01*
X131135518Y-87464750D01*
X131065000Y-87819268D01*
X129627000Y-87819268D01*
X129627000Y-84120000D01*
X131061928Y-84120000D01*
X131074188Y-84244482D01*
X131110498Y-84364180D01*
X131169463Y-84474494D01*
X131248815Y-84571185D01*
X131345506Y-84650537D01*
X131455820Y-84709502D01*
X131575518Y-84745812D01*
X131700000Y-84758072D01*
X132614250Y-84755000D01*
X132773000Y-84596250D01*
X132773000Y-83047000D01*
X133027000Y-83047000D01*
X133027000Y-84596250D01*
X133185750Y-84755000D01*
X134100000Y-84758072D01*
X134224482Y-84745812D01*
X134344180Y-84709502D01*
X134454494Y-84650537D01*
X134551185Y-84571185D01*
X134630537Y-84474494D01*
X134689502Y-84364180D01*
X134725812Y-84244482D01*
X134738072Y-84120000D01*
X134735000Y-83205750D01*
X134576250Y-83047000D01*
X133027000Y-83047000D01*
X132773000Y-83047000D01*
X131223750Y-83047000D01*
X131065000Y-83205750D01*
X131061928Y-84120000D01*
X129627000Y-84120000D01*
X129627000Y-81720000D01*
X131061928Y-81720000D01*
X131065000Y-82634250D01*
X131223750Y-82793000D01*
X132773000Y-82793000D01*
X132773000Y-81243750D01*
X133027000Y-81243750D01*
X133027000Y-82793000D01*
X134576250Y-82793000D01*
X134735000Y-82634250D01*
X134738072Y-81720000D01*
X134725812Y-81595518D01*
X134689502Y-81475820D01*
X134630537Y-81365506D01*
X134551185Y-81268815D01*
X134454494Y-81189463D01*
X134344180Y-81130498D01*
X134224482Y-81094188D01*
X134100000Y-81081928D01*
X133185750Y-81085000D01*
X133027000Y-81243750D01*
X132773000Y-81243750D01*
X132614250Y-81085000D01*
X131700000Y-81081928D01*
X131575518Y-81094188D01*
X131455820Y-81130498D01*
X131345506Y-81189463D01*
X131248815Y-81268815D01*
X131169463Y-81365506D01*
X131110498Y-81475820D01*
X131074188Y-81595518D01*
X131061928Y-81720000D01*
X129627000Y-81720000D01*
X129627000Y-80627000D01*
X141840000Y-80627000D01*
X141840000Y-100373000D01*
G37*
G04 #@! TD.AperFunction*
D18*
X124873000Y-113873000D02*
X123432649Y-113873000D01*
X123444180Y-113869502D01*
X123554494Y-113810537D01*
X123651185Y-113731185D01*
X123730537Y-113634494D01*
X123789502Y-113524180D01*
X123825812Y-113404482D01*
X123838072Y-113280000D01*
X123835000Y-112365750D01*
X123676250Y-112207000D01*
X122127000Y-112207000D01*
X122127000Y-112227000D01*
X121873000Y-112227000D01*
X121873000Y-112207000D01*
X120323750Y-112207000D01*
X120165000Y-112365750D01*
X120161928Y-113280000D01*
X120174188Y-113404482D01*
X120210498Y-113524180D01*
X120269463Y-113634494D01*
X120348815Y-113731185D01*
X120445506Y-113810537D01*
X120555820Y-113869502D01*
X120567351Y-113873000D01*
X118627000Y-113873000D01*
X118627000Y-110880000D01*
X120161928Y-110880000D01*
X120165000Y-111794250D01*
X120323750Y-111953000D01*
X121873000Y-111953000D01*
X121873000Y-110403750D01*
X122127000Y-110403750D01*
X122127000Y-111953000D01*
X123676250Y-111953000D01*
X123835000Y-111794250D01*
X123838072Y-110880000D01*
X123825812Y-110755518D01*
X123789502Y-110635820D01*
X123730537Y-110525506D01*
X123651185Y-110428815D01*
X123554494Y-110349463D01*
X123444180Y-110290498D01*
X123324482Y-110254188D01*
X123200000Y-110241928D01*
X122285750Y-110245000D01*
X122127000Y-110403750D01*
X121873000Y-110403750D01*
X121714250Y-110245000D01*
X120800000Y-110241928D01*
X120675518Y-110254188D01*
X120555820Y-110290498D01*
X120445506Y-110349463D01*
X120348815Y-110428815D01*
X120269463Y-110525506D01*
X120210498Y-110635820D01*
X120174188Y-110755518D01*
X120161928Y-110880000D01*
X118627000Y-110880000D01*
X118627000Y-108277980D01*
X120901626Y-108277980D01*
X121021514Y-108562836D01*
X121345210Y-108723699D01*
X121694069Y-108818322D01*
X122054684Y-108843067D01*
X122413198Y-108796985D01*
X122755833Y-108681846D01*
X122978486Y-108562836D01*
X123098374Y-108277980D01*
X122000000Y-107179605D01*
X120901626Y-108277980D01*
X118627000Y-108277980D01*
X118627000Y-107054684D01*
X120156933Y-107054684D01*
X120203015Y-107413198D01*
X120318154Y-107755833D01*
X120437164Y-107978486D01*
X120722020Y-108098374D01*
X121820395Y-107000000D01*
X122179605Y-107000000D01*
X123277980Y-108098374D01*
X123562836Y-107978486D01*
X123723699Y-107654790D01*
X123818322Y-107305931D01*
X123843067Y-106945316D01*
X123796985Y-106586802D01*
X123681846Y-106244167D01*
X123562836Y-106021514D01*
X123277980Y-105901626D01*
X122179605Y-107000000D01*
X121820395Y-107000000D01*
X120722020Y-105901626D01*
X120437164Y-106021514D01*
X120276301Y-106345210D01*
X120181678Y-106694069D01*
X120156933Y-107054684D01*
X118627000Y-107054684D01*
X118627000Y-105722020D01*
X120901626Y-105722020D01*
X122000000Y-106820395D01*
X123098374Y-105722020D01*
X122978486Y-105437164D01*
X122654790Y-105276301D01*
X122305931Y-105181678D01*
X121945316Y-105156933D01*
X121586802Y-105203015D01*
X121244167Y-105318154D01*
X121021514Y-105437164D01*
X120901626Y-105722020D01*
X118627000Y-105722020D01*
X118627000Y-105127000D01*
X124873000Y-105127000D01*
X124873000Y-113873000D01*
G04 #@! TA.AperFunction,Conductor*
D19*
G36*
X124873000Y-113873000D02*
G01*
X123432649Y-113873000D01*
X123444180Y-113869502D01*
X123554494Y-113810537D01*
X123651185Y-113731185D01*
X123730537Y-113634494D01*
X123789502Y-113524180D01*
X123825812Y-113404482D01*
X123838072Y-113280000D01*
X123835000Y-112365750D01*
X123676250Y-112207000D01*
X122127000Y-112207000D01*
X122127000Y-112227000D01*
X121873000Y-112227000D01*
X121873000Y-112207000D01*
X120323750Y-112207000D01*
X120165000Y-112365750D01*
X120161928Y-113280000D01*
X120174188Y-113404482D01*
X120210498Y-113524180D01*
X120269463Y-113634494D01*
X120348815Y-113731185D01*
X120445506Y-113810537D01*
X120555820Y-113869502D01*
X120567351Y-113873000D01*
X118627000Y-113873000D01*
X118627000Y-110880000D01*
X120161928Y-110880000D01*
X120165000Y-111794250D01*
X120323750Y-111953000D01*
X121873000Y-111953000D01*
X121873000Y-110403750D01*
X122127000Y-110403750D01*
X122127000Y-111953000D01*
X123676250Y-111953000D01*
X123835000Y-111794250D01*
X123838072Y-110880000D01*
X123825812Y-110755518D01*
X123789502Y-110635820D01*
X123730537Y-110525506D01*
X123651185Y-110428815D01*
X123554494Y-110349463D01*
X123444180Y-110290498D01*
X123324482Y-110254188D01*
X123200000Y-110241928D01*
X122285750Y-110245000D01*
X122127000Y-110403750D01*
X121873000Y-110403750D01*
X121714250Y-110245000D01*
X120800000Y-110241928D01*
X120675518Y-110254188D01*
X120555820Y-110290498D01*
X120445506Y-110349463D01*
X120348815Y-110428815D01*
X120269463Y-110525506D01*
X120210498Y-110635820D01*
X120174188Y-110755518D01*
X120161928Y-110880000D01*
X118627000Y-110880000D01*
X118627000Y-108277980D01*
X120901626Y-108277980D01*
X121021514Y-108562836D01*
X121345210Y-108723699D01*
X121694069Y-108818322D01*
X122054684Y-108843067D01*
X122413198Y-108796985D01*
X122755833Y-108681846D01*
X122978486Y-108562836D01*
X123098374Y-108277980D01*
X122000000Y-107179605D01*
X120901626Y-108277980D01*
X118627000Y-108277980D01*
X118627000Y-107054684D01*
X120156933Y-107054684D01*
X120203015Y-107413198D01*
X120318154Y-107755833D01*
X120437164Y-107978486D01*
X120722020Y-108098374D01*
X121820395Y-107000000D01*
X122179605Y-107000000D01*
X123277980Y-108098374D01*
X123562836Y-107978486D01*
X123723699Y-107654790D01*
X123818322Y-107305931D01*
X123843067Y-106945316D01*
X123796985Y-106586802D01*
X123681846Y-106244167D01*
X123562836Y-106021514D01*
X123277980Y-105901626D01*
X122179605Y-107000000D01*
X121820395Y-107000000D01*
X120722020Y-105901626D01*
X120437164Y-106021514D01*
X120276301Y-106345210D01*
X120181678Y-106694069D01*
X120156933Y-107054684D01*
X118627000Y-107054684D01*
X118627000Y-105722020D01*
X120901626Y-105722020D01*
X122000000Y-106820395D01*
X123098374Y-105722020D01*
X122978486Y-105437164D01*
X122654790Y-105276301D01*
X122305931Y-105181678D01*
X121945316Y-105156933D01*
X121586802Y-105203015D01*
X121244167Y-105318154D01*
X121021514Y-105437164D01*
X120901626Y-105722020D01*
X118627000Y-105722020D01*
X118627000Y-105127000D01*
X124873000Y-105127000D01*
X124873000Y-113873000D01*
G37*
G04 #@! TD.AperFunction*
D18*
X124873000Y-100873000D02*
X118627000Y-100873000D01*
X118627000Y-99437980D01*
X120901626Y-99437980D01*
X121021514Y-99722836D01*
X121345210Y-99883699D01*
X121694069Y-99978322D01*
X122054684Y-100003067D01*
X122413198Y-99956985D01*
X122755833Y-99841846D01*
X122978486Y-99722836D01*
X123098374Y-99437980D01*
X122000000Y-98339605D01*
X120901626Y-99437980D01*
X118627000Y-99437980D01*
X118627000Y-98214684D01*
X120156933Y-98214684D01*
X120203015Y-98573198D01*
X120318154Y-98915833D01*
X120437164Y-99138486D01*
X120722020Y-99258374D01*
X121820395Y-98160000D01*
X122179605Y-98160000D01*
X123277980Y-99258374D01*
X123562836Y-99138486D01*
X123723699Y-98814790D01*
X123818322Y-98465931D01*
X123843067Y-98105316D01*
X123796985Y-97746802D01*
X123681846Y-97404167D01*
X123562836Y-97181514D01*
X123277980Y-97061626D01*
X122179605Y-98160000D01*
X121820395Y-98160000D01*
X120722020Y-97061626D01*
X120437164Y-97181514D01*
X120276301Y-97505210D01*
X120181678Y-97854069D01*
X120156933Y-98214684D01*
X118627000Y-98214684D01*
X118627000Y-96882020D01*
X120901626Y-96882020D01*
X122000000Y-97980395D01*
X123098374Y-96882020D01*
X122978486Y-96597164D01*
X122654790Y-96436301D01*
X122305931Y-96341678D01*
X121945316Y-96316933D01*
X121586802Y-96363015D01*
X121244167Y-96478154D01*
X121021514Y-96597164D01*
X120901626Y-96882020D01*
X118627000Y-96882020D01*
X118627000Y-94280000D01*
X120161928Y-94280000D01*
X120174188Y-94404482D01*
X120210498Y-94524180D01*
X120269463Y-94634494D01*
X120348815Y-94731185D01*
X120445506Y-94810537D01*
X120555820Y-94869502D01*
X120675518Y-94905812D01*
X120800000Y-94918072D01*
X121714250Y-94915000D01*
X121873000Y-94756250D01*
X121873000Y-93207000D01*
X122127000Y-93207000D01*
X122127000Y-94756250D01*
X122285750Y-94915000D01*
X123200000Y-94918072D01*
X123324482Y-94905812D01*
X123444180Y-94869502D01*
X123554494Y-94810537D01*
X123651185Y-94731185D01*
X123730537Y-94634494D01*
X123789502Y-94524180D01*
X123825812Y-94404482D01*
X123838072Y-94280000D01*
X123835000Y-93365750D01*
X123676250Y-93207000D01*
X122127000Y-93207000D01*
X121873000Y-93207000D01*
X120323750Y-93207000D01*
X120165000Y-93365750D01*
X120161928Y-94280000D01*
X118627000Y-94280000D01*
X118627000Y-91880000D01*
X120161928Y-91880000D01*
X120165000Y-92794250D01*
X120323750Y-92953000D01*
X121873000Y-92953000D01*
X121873000Y-91403750D01*
X122127000Y-91403750D01*
X122127000Y-92953000D01*
X123676250Y-92953000D01*
X123835000Y-92794250D01*
X123838072Y-91880000D01*
X123825812Y-91755518D01*
X123789502Y-91635820D01*
X123730537Y-91525506D01*
X123651185Y-91428815D01*
X123554494Y-91349463D01*
X123444180Y-91290498D01*
X123324482Y-91254188D01*
X123200000Y-91241928D01*
X122285750Y-91245000D01*
X122127000Y-91403750D01*
X121873000Y-91403750D01*
X121714250Y-91245000D01*
X120800000Y-91241928D01*
X120675518Y-91254188D01*
X120555820Y-91290498D01*
X120445506Y-91349463D01*
X120348815Y-91428815D01*
X120269463Y-91525506D01*
X120210498Y-91635820D01*
X120174188Y-91755518D01*
X120161928Y-91880000D01*
X118627000Y-91880000D01*
X118627000Y-91127000D01*
X124873000Y-91127000D01*
X124873000Y-100873000D01*
G04 #@! TA.AperFunction,Conductor*
D19*
G36*
X124873000Y-100873000D02*
G01*
X118627000Y-100873000D01*
X118627000Y-99437980D01*
X120901626Y-99437980D01*
X121021514Y-99722836D01*
X121345210Y-99883699D01*
X121694069Y-99978322D01*
X122054684Y-100003067D01*
X122413198Y-99956985D01*
X122755833Y-99841846D01*
X122978486Y-99722836D01*
X123098374Y-99437980D01*
X122000000Y-98339605D01*
X120901626Y-99437980D01*
X118627000Y-99437980D01*
X118627000Y-98214684D01*
X120156933Y-98214684D01*
X120203015Y-98573198D01*
X120318154Y-98915833D01*
X120437164Y-99138486D01*
X120722020Y-99258374D01*
X121820395Y-98160000D01*
X122179605Y-98160000D01*
X123277980Y-99258374D01*
X123562836Y-99138486D01*
X123723699Y-98814790D01*
X123818322Y-98465931D01*
X123843067Y-98105316D01*
X123796985Y-97746802D01*
X123681846Y-97404167D01*
X123562836Y-97181514D01*
X123277980Y-97061626D01*
X122179605Y-98160000D01*
X121820395Y-98160000D01*
X120722020Y-97061626D01*
X120437164Y-97181514D01*
X120276301Y-97505210D01*
X120181678Y-97854069D01*
X120156933Y-98214684D01*
X118627000Y-98214684D01*
X118627000Y-96882020D01*
X120901626Y-96882020D01*
X122000000Y-97980395D01*
X123098374Y-96882020D01*
X122978486Y-96597164D01*
X122654790Y-96436301D01*
X122305931Y-96341678D01*
X121945316Y-96316933D01*
X121586802Y-96363015D01*
X121244167Y-96478154D01*
X121021514Y-96597164D01*
X120901626Y-96882020D01*
X118627000Y-96882020D01*
X118627000Y-94280000D01*
X120161928Y-94280000D01*
X120174188Y-94404482D01*
X120210498Y-94524180D01*
X120269463Y-94634494D01*
X120348815Y-94731185D01*
X120445506Y-94810537D01*
X120555820Y-94869502D01*
X120675518Y-94905812D01*
X120800000Y-94918072D01*
X121714250Y-94915000D01*
X121873000Y-94756250D01*
X121873000Y-93207000D01*
X122127000Y-93207000D01*
X122127000Y-94756250D01*
X122285750Y-94915000D01*
X123200000Y-94918072D01*
X123324482Y-94905812D01*
X123444180Y-94869502D01*
X123554494Y-94810537D01*
X123651185Y-94731185D01*
X123730537Y-94634494D01*
X123789502Y-94524180D01*
X123825812Y-94404482D01*
X123838072Y-94280000D01*
X123835000Y-93365750D01*
X123676250Y-93207000D01*
X122127000Y-93207000D01*
X121873000Y-93207000D01*
X120323750Y-93207000D01*
X120165000Y-93365750D01*
X120161928Y-94280000D01*
X118627000Y-94280000D01*
X118627000Y-91880000D01*
X120161928Y-91880000D01*
X120165000Y-92794250D01*
X120323750Y-92953000D01*
X121873000Y-92953000D01*
X121873000Y-91403750D01*
X122127000Y-91403750D01*
X122127000Y-92953000D01*
X123676250Y-92953000D01*
X123835000Y-92794250D01*
X123838072Y-91880000D01*
X123825812Y-91755518D01*
X123789502Y-91635820D01*
X123730537Y-91525506D01*
X123651185Y-91428815D01*
X123554494Y-91349463D01*
X123444180Y-91290498D01*
X123324482Y-91254188D01*
X123200000Y-91241928D01*
X122285750Y-91245000D01*
X122127000Y-91403750D01*
X121873000Y-91403750D01*
X121714250Y-91245000D01*
X120800000Y-91241928D01*
X120675518Y-91254188D01*
X120555820Y-91290498D01*
X120445506Y-91349463D01*
X120348815Y-91428815D01*
X120269463Y-91525506D01*
X120210498Y-91635820D01*
X120174188Y-91755518D01*
X120161928Y-91880000D01*
X118627000Y-91880000D01*
X118627000Y-91127000D01*
X124873000Y-91127000D01*
X124873000Y-100873000D01*
G37*
G04 #@! TD.AperFunction*
D18*
X121244167Y-81238154D02*
X121021514Y-81357164D01*
X120901626Y-81642020D01*
X122000000Y-82740395D01*
X123098374Y-81642020D01*
X122978486Y-81357164D01*
X122654790Y-81196301D01*
X122399289Y-81127000D01*
X124873000Y-81127000D01*
X124873000Y-89373000D01*
X123811094Y-89373000D01*
X123825812Y-89324482D01*
X123838072Y-89200000D01*
X123835000Y-88285750D01*
X123676250Y-88127000D01*
X122127000Y-88127000D01*
X122127000Y-88147000D01*
X121873000Y-88147000D01*
X121873000Y-88127000D01*
X120323750Y-88127000D01*
X120165000Y-88285750D01*
X120161928Y-89200000D01*
X120174188Y-89324482D01*
X120188906Y-89373000D01*
X118627000Y-89373000D01*
X118627000Y-86800000D01*
X120161928Y-86800000D01*
X120165000Y-87714250D01*
X120323750Y-87873000D01*
X121873000Y-87873000D01*
X121873000Y-86323750D01*
X122127000Y-86323750D01*
X122127000Y-87873000D01*
X123676250Y-87873000D01*
X123835000Y-87714250D01*
X123838072Y-86800000D01*
X123825812Y-86675518D01*
X123789502Y-86555820D01*
X123730537Y-86445506D01*
X123651185Y-86348815D01*
X123554494Y-86269463D01*
X123444180Y-86210498D01*
X123324482Y-86174188D01*
X123200000Y-86161928D01*
X122285750Y-86165000D01*
X122127000Y-86323750D01*
X121873000Y-86323750D01*
X121714250Y-86165000D01*
X120800000Y-86161928D01*
X120675518Y-86174188D01*
X120555820Y-86210498D01*
X120445506Y-86269463D01*
X120348815Y-86348815D01*
X120269463Y-86445506D01*
X120210498Y-86555820D01*
X120174188Y-86675518D01*
X120161928Y-86800000D01*
X118627000Y-86800000D01*
X118627000Y-84197980D01*
X120901626Y-84197980D01*
X121021514Y-84482836D01*
X121345210Y-84643699D01*
X121694069Y-84738322D01*
X122054684Y-84763067D01*
X122413198Y-84716985D01*
X122755833Y-84601846D01*
X122978486Y-84482836D01*
X123098374Y-84197980D01*
X122000000Y-83099605D01*
X120901626Y-84197980D01*
X118627000Y-84197980D01*
X118627000Y-82974684D01*
X120156933Y-82974684D01*
X120203015Y-83333198D01*
X120318154Y-83675833D01*
X120437164Y-83898486D01*
X120722020Y-84018374D01*
X121820395Y-82920000D01*
X122179605Y-82920000D01*
X123277980Y-84018374D01*
X123562836Y-83898486D01*
X123723699Y-83574790D01*
X123818322Y-83225931D01*
X123843067Y-82865316D01*
X123796985Y-82506802D01*
X123681846Y-82164167D01*
X123562836Y-81941514D01*
X123277980Y-81821626D01*
X122179605Y-82920000D01*
X121820395Y-82920000D01*
X120722020Y-81821626D01*
X120437164Y-81941514D01*
X120276301Y-82265210D01*
X120181678Y-82614069D01*
X120156933Y-82974684D01*
X118627000Y-82974684D01*
X118627000Y-81127000D01*
X121574943Y-81127000D01*
X121244167Y-81238154D01*
G04 #@! TA.AperFunction,Conductor*
D19*
G36*
X121244167Y-81238154D02*
G01*
X121021514Y-81357164D01*
X120901626Y-81642020D01*
X122000000Y-82740395D01*
X123098374Y-81642020D01*
X122978486Y-81357164D01*
X122654790Y-81196301D01*
X122399289Y-81127000D01*
X124873000Y-81127000D01*
X124873000Y-89373000D01*
X123811094Y-89373000D01*
X123825812Y-89324482D01*
X123838072Y-89200000D01*
X123835000Y-88285750D01*
X123676250Y-88127000D01*
X122127000Y-88127000D01*
X122127000Y-88147000D01*
X121873000Y-88147000D01*
X121873000Y-88127000D01*
X120323750Y-88127000D01*
X120165000Y-88285750D01*
X120161928Y-89200000D01*
X120174188Y-89324482D01*
X120188906Y-89373000D01*
X118627000Y-89373000D01*
X118627000Y-86800000D01*
X120161928Y-86800000D01*
X120165000Y-87714250D01*
X120323750Y-87873000D01*
X121873000Y-87873000D01*
X121873000Y-86323750D01*
X122127000Y-86323750D01*
X122127000Y-87873000D01*
X123676250Y-87873000D01*
X123835000Y-87714250D01*
X123838072Y-86800000D01*
X123825812Y-86675518D01*
X123789502Y-86555820D01*
X123730537Y-86445506D01*
X123651185Y-86348815D01*
X123554494Y-86269463D01*
X123444180Y-86210498D01*
X123324482Y-86174188D01*
X123200000Y-86161928D01*
X122285750Y-86165000D01*
X122127000Y-86323750D01*
X121873000Y-86323750D01*
X121714250Y-86165000D01*
X120800000Y-86161928D01*
X120675518Y-86174188D01*
X120555820Y-86210498D01*
X120445506Y-86269463D01*
X120348815Y-86348815D01*
X120269463Y-86445506D01*
X120210498Y-86555820D01*
X120174188Y-86675518D01*
X120161928Y-86800000D01*
X118627000Y-86800000D01*
X118627000Y-84197980D01*
X120901626Y-84197980D01*
X121021514Y-84482836D01*
X121345210Y-84643699D01*
X121694069Y-84738322D01*
X122054684Y-84763067D01*
X122413198Y-84716985D01*
X122755833Y-84601846D01*
X122978486Y-84482836D01*
X123098374Y-84197980D01*
X122000000Y-83099605D01*
X120901626Y-84197980D01*
X118627000Y-84197980D01*
X118627000Y-82974684D01*
X120156933Y-82974684D01*
X120203015Y-83333198D01*
X120318154Y-83675833D01*
X120437164Y-83898486D01*
X120722020Y-84018374D01*
X121820395Y-82920000D01*
X122179605Y-82920000D01*
X123277980Y-84018374D01*
X123562836Y-83898486D01*
X123723699Y-83574790D01*
X123818322Y-83225931D01*
X123843067Y-82865316D01*
X123796985Y-82506802D01*
X123681846Y-82164167D01*
X123562836Y-81941514D01*
X123277980Y-81821626D01*
X122179605Y-82920000D01*
X121820395Y-82920000D01*
X120722020Y-81821626D01*
X120437164Y-81941514D01*
X120276301Y-82265210D01*
X120181678Y-82614069D01*
X120156933Y-82974684D01*
X118627000Y-82974684D01*
X118627000Y-81127000D01*
X121574943Y-81127000D01*
X121244167Y-81238154D01*
G37*
G04 #@! TD.AperFunction*
D18*
X141840001Y-124499582D02*
X129627000Y-124499582D01*
X129627000Y-121040000D01*
X131061928Y-121040000D01*
X131061928Y-123440000D01*
X131074188Y-123564482D01*
X131110498Y-123684180D01*
X131169463Y-123794494D01*
X131248815Y-123891185D01*
X131345506Y-123970537D01*
X131455820Y-124029502D01*
X131575518Y-124065812D01*
X131700000Y-124078072D01*
X134100000Y-124078072D01*
X134224482Y-124065812D01*
X134344180Y-124029502D01*
X134454494Y-123970537D01*
X134551185Y-123891185D01*
X134630537Y-123794494D01*
X134689502Y-123684180D01*
X134725812Y-123564482D01*
X134738072Y-123440000D01*
X134738072Y-121040000D01*
X134725812Y-120915518D01*
X134689502Y-120795820D01*
X134630537Y-120685506D01*
X134551185Y-120588815D01*
X134454494Y-120509463D01*
X134344180Y-120450498D01*
X134224482Y-120414188D01*
X134100000Y-120401928D01*
X131700000Y-120401928D01*
X131575518Y-120414188D01*
X131455820Y-120450498D01*
X131345506Y-120509463D01*
X131248815Y-120588815D01*
X131169463Y-120685506D01*
X131110498Y-120795820D01*
X131074188Y-120915518D01*
X131061928Y-121040000D01*
X129627000Y-121040000D01*
X129627000Y-118437980D01*
X131801626Y-118437980D01*
X131921514Y-118722836D01*
X132245210Y-118883699D01*
X132594069Y-118978322D01*
X132954684Y-119003067D01*
X133313198Y-118956985D01*
X133655833Y-118841846D01*
X133878486Y-118722836D01*
X133998374Y-118437980D01*
X132900000Y-117339605D01*
X131801626Y-118437980D01*
X129627000Y-118437980D01*
X129627000Y-117214684D01*
X131056933Y-117214684D01*
X131103015Y-117573198D01*
X131218154Y-117915833D01*
X131337164Y-118138486D01*
X131622020Y-118258374D01*
X132720395Y-117160000D01*
X133079605Y-117160000D01*
X134177980Y-118258374D01*
X134462836Y-118138486D01*
X134623699Y-117814790D01*
X134718322Y-117465931D01*
X134743067Y-117105316D01*
X134696985Y-116746802D01*
X134581846Y-116404167D01*
X134462836Y-116181514D01*
X134177980Y-116061626D01*
X133079605Y-117160000D01*
X132720395Y-117160000D01*
X131622020Y-116061626D01*
X131337164Y-116181514D01*
X131176301Y-116505210D01*
X131081678Y-116854069D01*
X131056933Y-117214684D01*
X129627000Y-117214684D01*
X129627000Y-115882020D01*
X131801626Y-115882020D01*
X132900000Y-116980395D01*
X133998374Y-115882020D01*
X133878486Y-115597164D01*
X133554790Y-115436301D01*
X133205931Y-115341678D01*
X132845316Y-115316933D01*
X132486802Y-115363015D01*
X132144167Y-115478154D01*
X131921514Y-115597164D01*
X131801626Y-115882020D01*
X129627000Y-115882020D01*
X129627000Y-113357980D01*
X131801626Y-113357980D01*
X131921514Y-113642836D01*
X132245210Y-113803699D01*
X132594069Y-113898322D01*
X132954684Y-113923067D01*
X133313198Y-113876985D01*
X133655833Y-113761846D01*
X133878486Y-113642836D01*
X133998374Y-113357980D01*
X132900000Y-112259605D01*
X131801626Y-113357980D01*
X129627000Y-113357980D01*
X129627000Y-112134684D01*
X131056933Y-112134684D01*
X131103015Y-112493198D01*
X131218154Y-112835833D01*
X131337164Y-113058486D01*
X131622020Y-113178374D01*
X132720395Y-112080000D01*
X133079605Y-112080000D01*
X134177980Y-113178374D01*
X134462836Y-113058486D01*
X134623699Y-112734790D01*
X134718322Y-112385931D01*
X134743067Y-112025316D01*
X134696985Y-111666802D01*
X134581846Y-111324167D01*
X134462836Y-111101514D01*
X134177980Y-110981626D01*
X133079605Y-112080000D01*
X132720395Y-112080000D01*
X131622020Y-110981626D01*
X131337164Y-111101514D01*
X131176301Y-111425210D01*
X131081678Y-111774069D01*
X131056933Y-112134684D01*
X129627000Y-112134684D01*
X129627000Y-110802020D01*
X131801626Y-110802020D01*
X132900000Y-111900395D01*
X133998374Y-110802020D01*
X133878486Y-110517164D01*
X133554790Y-110356301D01*
X133205931Y-110261678D01*
X132845316Y-110236933D01*
X132486802Y-110283015D01*
X132144167Y-110398154D01*
X131921514Y-110517164D01*
X131801626Y-110802020D01*
X129627000Y-110802020D01*
X129627000Y-105800000D01*
X131061928Y-105800000D01*
X131061928Y-108200000D01*
X131074188Y-108324482D01*
X131110498Y-108444180D01*
X131169463Y-108554494D01*
X131248815Y-108651185D01*
X131345506Y-108730537D01*
X131455820Y-108789502D01*
X131575518Y-108825812D01*
X131700000Y-108838072D01*
X134100000Y-108838072D01*
X134224482Y-108825812D01*
X134344180Y-108789502D01*
X134454494Y-108730537D01*
X134551185Y-108651185D01*
X134575902Y-108621066D01*
X138508539Y-108621066D01*
X138610339Y-108890579D01*
X138908477Y-109036463D01*
X139229346Y-109121380D01*
X139560617Y-109142066D01*
X139889557Y-109097728D01*
X140203527Y-108990069D01*
X140389661Y-108890579D01*
X140491461Y-108621066D01*
X139500000Y-107629605D01*
X138508539Y-108621066D01*
X134575902Y-108621066D01*
X134630537Y-108554494D01*
X134689502Y-108444180D01*
X134725812Y-108324482D01*
X134738072Y-108200000D01*
X134738072Y-107510617D01*
X137807934Y-107510617D01*
X137852272Y-107839557D01*
X137959931Y-108153527D01*
X138059421Y-108339661D01*
X138328934Y-108441461D01*
X139320395Y-107450000D01*
X139679605Y-107450000D01*
X140671066Y-108441461D01*
X140940579Y-108339661D01*
X141086463Y-108041523D01*
X141171380Y-107720654D01*
X141192066Y-107389383D01*
X141147728Y-107060443D01*
X141040069Y-106746473D01*
X140940579Y-106560339D01*
X140671066Y-106458539D01*
X139679605Y-107450000D01*
X139320395Y-107450000D01*
X138328934Y-106458539D01*
X138059421Y-106560339D01*
X137913537Y-106858477D01*
X137828620Y-107179346D01*
X137807934Y-107510617D01*
X134738072Y-107510617D01*
X134738072Y-106278934D01*
X138508539Y-106278934D01*
X139500000Y-107270395D01*
X140491461Y-106278934D01*
X140389661Y-106009421D01*
X140091523Y-105863537D01*
X139770654Y-105778620D01*
X139439383Y-105757934D01*
X139110443Y-105802272D01*
X138796473Y-105909931D01*
X138610339Y-106009421D01*
X138508539Y-106278934D01*
X134738072Y-106278934D01*
X134738072Y-105800000D01*
X134725812Y-105675518D01*
X134689502Y-105555820D01*
X134630537Y-105445506D01*
X134551185Y-105348815D01*
X134454494Y-105269463D01*
X134344180Y-105210498D01*
X134224482Y-105174188D01*
X134100000Y-105161928D01*
X131700000Y-105161928D01*
X131575518Y-105174188D01*
X131455820Y-105210498D01*
X131345506Y-105269463D01*
X131248815Y-105348815D01*
X131169463Y-105445506D01*
X131110498Y-105555820D01*
X131074188Y-105675518D01*
X131061928Y-105800000D01*
X129627000Y-105800000D01*
X129627000Y-104753582D01*
X141840001Y-104753582D01*
X141840001Y-124499582D01*
G04 #@! TA.AperFunction,Conductor*
D19*
G36*
X141840001Y-124499582D02*
G01*
X129627000Y-124499582D01*
X129627000Y-121040000D01*
X131061928Y-121040000D01*
X131061928Y-123440000D01*
X131074188Y-123564482D01*
X131110498Y-123684180D01*
X131169463Y-123794494D01*
X131248815Y-123891185D01*
X131345506Y-123970537D01*
X131455820Y-124029502D01*
X131575518Y-124065812D01*
X131700000Y-124078072D01*
X134100000Y-124078072D01*
X134224482Y-124065812D01*
X134344180Y-124029502D01*
X134454494Y-123970537D01*
X134551185Y-123891185D01*
X134630537Y-123794494D01*
X134689502Y-123684180D01*
X134725812Y-123564482D01*
X134738072Y-123440000D01*
X134738072Y-121040000D01*
X134725812Y-120915518D01*
X134689502Y-120795820D01*
X134630537Y-120685506D01*
X134551185Y-120588815D01*
X134454494Y-120509463D01*
X134344180Y-120450498D01*
X134224482Y-120414188D01*
X134100000Y-120401928D01*
X131700000Y-120401928D01*
X131575518Y-120414188D01*
X131455820Y-120450498D01*
X131345506Y-120509463D01*
X131248815Y-120588815D01*
X131169463Y-120685506D01*
X131110498Y-120795820D01*
X131074188Y-120915518D01*
X131061928Y-121040000D01*
X129627000Y-121040000D01*
X129627000Y-118437980D01*
X131801626Y-118437980D01*
X131921514Y-118722836D01*
X132245210Y-118883699D01*
X132594069Y-118978322D01*
X132954684Y-119003067D01*
X133313198Y-118956985D01*
X133655833Y-118841846D01*
X133878486Y-118722836D01*
X133998374Y-118437980D01*
X132900000Y-117339605D01*
X131801626Y-118437980D01*
X129627000Y-118437980D01*
X129627000Y-117214684D01*
X131056933Y-117214684D01*
X131103015Y-117573198D01*
X131218154Y-117915833D01*
X131337164Y-118138486D01*
X131622020Y-118258374D01*
X132720395Y-117160000D01*
X133079605Y-117160000D01*
X134177980Y-118258374D01*
X134462836Y-118138486D01*
X134623699Y-117814790D01*
X134718322Y-117465931D01*
X134743067Y-117105316D01*
X134696985Y-116746802D01*
X134581846Y-116404167D01*
X134462836Y-116181514D01*
X134177980Y-116061626D01*
X133079605Y-117160000D01*
X132720395Y-117160000D01*
X131622020Y-116061626D01*
X131337164Y-116181514D01*
X131176301Y-116505210D01*
X131081678Y-116854069D01*
X131056933Y-117214684D01*
X129627000Y-117214684D01*
X129627000Y-115882020D01*
X131801626Y-115882020D01*
X132900000Y-116980395D01*
X133998374Y-115882020D01*
X133878486Y-115597164D01*
X133554790Y-115436301D01*
X133205931Y-115341678D01*
X132845316Y-115316933D01*
X132486802Y-115363015D01*
X132144167Y-115478154D01*
X131921514Y-115597164D01*
X131801626Y-115882020D01*
X129627000Y-115882020D01*
X129627000Y-113357980D01*
X131801626Y-113357980D01*
X131921514Y-113642836D01*
X132245210Y-113803699D01*
X132594069Y-113898322D01*
X132954684Y-113923067D01*
X133313198Y-113876985D01*
X133655833Y-113761846D01*
X133878486Y-113642836D01*
X133998374Y-113357980D01*
X132900000Y-112259605D01*
X131801626Y-113357980D01*
X129627000Y-113357980D01*
X129627000Y-112134684D01*
X131056933Y-112134684D01*
X131103015Y-112493198D01*
X131218154Y-112835833D01*
X131337164Y-113058486D01*
X131622020Y-113178374D01*
X132720395Y-112080000D01*
X133079605Y-112080000D01*
X134177980Y-113178374D01*
X134462836Y-113058486D01*
X134623699Y-112734790D01*
X134718322Y-112385931D01*
X134743067Y-112025316D01*
X134696985Y-111666802D01*
X134581846Y-111324167D01*
X134462836Y-111101514D01*
X134177980Y-110981626D01*
X133079605Y-112080000D01*
X132720395Y-112080000D01*
X131622020Y-110981626D01*
X131337164Y-111101514D01*
X131176301Y-111425210D01*
X131081678Y-111774069D01*
X131056933Y-112134684D01*
X129627000Y-112134684D01*
X129627000Y-110802020D01*
X131801626Y-110802020D01*
X132900000Y-111900395D01*
X133998374Y-110802020D01*
X133878486Y-110517164D01*
X133554790Y-110356301D01*
X133205931Y-110261678D01*
X132845316Y-110236933D01*
X132486802Y-110283015D01*
X132144167Y-110398154D01*
X131921514Y-110517164D01*
X131801626Y-110802020D01*
X129627000Y-110802020D01*
X129627000Y-105800000D01*
X131061928Y-105800000D01*
X131061928Y-108200000D01*
X131074188Y-108324482D01*
X131110498Y-108444180D01*
X131169463Y-108554494D01*
X131248815Y-108651185D01*
X131345506Y-108730537D01*
X131455820Y-108789502D01*
X131575518Y-108825812D01*
X131700000Y-108838072D01*
X134100000Y-108838072D01*
X134224482Y-108825812D01*
X134344180Y-108789502D01*
X134454494Y-108730537D01*
X134551185Y-108651185D01*
X134575902Y-108621066D01*
X138508539Y-108621066D01*
X138610339Y-108890579D01*
X138908477Y-109036463D01*
X139229346Y-109121380D01*
X139560617Y-109142066D01*
X139889557Y-109097728D01*
X140203527Y-108990069D01*
X140389661Y-108890579D01*
X140491461Y-108621066D01*
X139500000Y-107629605D01*
X138508539Y-108621066D01*
X134575902Y-108621066D01*
X134630537Y-108554494D01*
X134689502Y-108444180D01*
X134725812Y-108324482D01*
X134738072Y-108200000D01*
X134738072Y-107510617D01*
X137807934Y-107510617D01*
X137852272Y-107839557D01*
X137959931Y-108153527D01*
X138059421Y-108339661D01*
X138328934Y-108441461D01*
X139320395Y-107450000D01*
X139679605Y-107450000D01*
X140671066Y-108441461D01*
X140940579Y-108339661D01*
X141086463Y-108041523D01*
X141171380Y-107720654D01*
X141192066Y-107389383D01*
X141147728Y-107060443D01*
X141040069Y-106746473D01*
X140940579Y-106560339D01*
X140671066Y-106458539D01*
X139679605Y-107450000D01*
X139320395Y-107450000D01*
X138328934Y-106458539D01*
X138059421Y-106560339D01*
X137913537Y-106858477D01*
X137828620Y-107179346D01*
X137807934Y-107510617D01*
X134738072Y-107510617D01*
X134738072Y-106278934D01*
X138508539Y-106278934D01*
X139500000Y-107270395D01*
X140491461Y-106278934D01*
X140389661Y-106009421D01*
X140091523Y-105863537D01*
X139770654Y-105778620D01*
X139439383Y-105757934D01*
X139110443Y-105802272D01*
X138796473Y-105909931D01*
X138610339Y-106009421D01*
X138508539Y-106278934D01*
X134738072Y-106278934D01*
X134738072Y-105800000D01*
X134725812Y-105675518D01*
X134689502Y-105555820D01*
X134630537Y-105445506D01*
X134551185Y-105348815D01*
X134454494Y-105269463D01*
X134344180Y-105210498D01*
X134224482Y-105174188D01*
X134100000Y-105161928D01*
X131700000Y-105161928D01*
X131575518Y-105174188D01*
X131455820Y-105210498D01*
X131345506Y-105269463D01*
X131248815Y-105348815D01*
X131169463Y-105445506D01*
X131110498Y-105555820D01*
X131074188Y-105675518D01*
X131061928Y-105800000D01*
X129627000Y-105800000D01*
X129627000Y-104753582D01*
X141840001Y-104753582D01*
X141840001Y-124499582D01*
G37*
G04 #@! TD.AperFunction*
M02*
