G04 #@! TF.GenerationSoftware,KiCad,Pcbnew,(5.1.9)-1*
G04 #@! TF.CreationDate,2021-04-03T11:00:13-07:00*
G04 #@! TF.ProjectId,vsps_power,76737073-5f70-46f7-9765-722e6b696361,rev?*
G04 #@! TF.SameCoordinates,Original*
G04 #@! TF.FileFunction,Soldermask,Bot*
G04 #@! TF.FilePolarity,Negative*
%FSLAX46Y46*%
G04 Gerber Fmt 4.6, Leading zero omitted, Abs format (unit mm)*
G04 Created by KiCad (PCBNEW (5.1.9)-1) date 2021-04-03 11:00:13*
%MOMM*%
%LPD*%
G01*
G04 APERTURE LIST*
%ADD10C,6.400000*%
%ADD11C,4.064000*%
%ADD12C,3.100000*%
%ADD13C,2.100000*%
%ADD14C,2.400000*%
%ADD15R,2.400000X2.400000*%
%ADD16C,2.000000*%
G04 APERTURE END LIST*
D10*
X130000000Y-135000000D03*
X130000000Y-70000000D03*
X72500000Y-135000000D03*
X72500000Y-70000000D03*
D11*
X108575000Y-123140000D03*
X99050000Y-123140000D03*
X89525000Y-123140000D03*
X80000000Y-123140000D03*
X108575000Y-82500000D03*
X99050000Y-82500000D03*
X89525000Y-82500000D03*
X80000000Y-82500000D03*
G36*
G01*
X62699999Y-117950000D02*
X65300001Y-117950000D01*
G75*
G02*
X65550000Y-118199999I0J-249999D01*
G01*
X65550000Y-120800001D01*
G75*
G02*
X65300001Y-121050000I-249999J0D01*
G01*
X62699999Y-121050000D01*
G75*
G02*
X62450000Y-120800001I0J249999D01*
G01*
X62450000Y-118199999D01*
G75*
G02*
X62699999Y-117950000I249999J0D01*
G01*
G37*
D12*
X64000000Y-125500000D03*
X64000000Y-131500000D03*
D13*
X139500000Y-107450000D03*
X139500000Y-102850000D03*
G36*
G01*
X138699999Y-97200000D02*
X140300001Y-97200000D01*
G75*
G02*
X140550000Y-97449999I0J-249999D01*
G01*
X140550000Y-99050001D01*
G75*
G02*
X140300001Y-99300000I-249999J0D01*
G01*
X138699999Y-99300000D01*
G75*
G02*
X138450000Y-99050001I0J249999D01*
G01*
X138450000Y-97449999D01*
G75*
G02*
X138699999Y-97200000I249999J0D01*
G01*
G37*
D14*
X122000000Y-122240000D03*
D15*
X132900000Y-122240000D03*
X122000000Y-117160000D03*
D14*
X132900000Y-117160000D03*
X132900000Y-112080000D03*
D15*
X122000000Y-112080000D03*
D14*
X122000000Y-107000000D03*
D15*
X132900000Y-107000000D03*
D14*
X122000000Y-98160000D03*
D15*
X132900000Y-98160000D03*
X122000000Y-93080000D03*
D14*
X132900000Y-93080000D03*
X132900000Y-88000000D03*
D15*
X122000000Y-88000000D03*
D14*
X122000000Y-82920000D03*
D15*
X132900000Y-82920000D03*
D16*
X69000000Y-93000000D03*
X64000000Y-93000000D03*
X64000000Y-108000000D03*
X69000000Y-108000000D03*
G36*
G01*
X65300001Y-84300000D02*
X62699999Y-84300000D01*
G75*
G02*
X62450000Y-84050001I0J249999D01*
G01*
X62450000Y-81449999D01*
G75*
G02*
X62699999Y-81200000I249999J0D01*
G01*
X65300001Y-81200000D01*
G75*
G02*
X65550000Y-81449999I0J-249999D01*
G01*
X65550000Y-84050001D01*
G75*
G02*
X65300001Y-84300000I-249999J0D01*
G01*
G37*
D12*
X64000000Y-76750000D03*
M02*
