G04 #@! TF.GenerationSoftware,KiCad,Pcbnew,(5.1.9)-1*
G04 #@! TF.CreationDate,2021-04-03T11:00:13-07:00*
G04 #@! TF.ProjectId,vsps_power,76737073-5f70-46f7-9765-722e6b696361,rev?*
G04 #@! TF.SameCoordinates,Original*
G04 #@! TF.FileFunction,Copper,L2,Bot*
G04 #@! TF.FilePolarity,Positive*
%FSLAX46Y46*%
G04 Gerber Fmt 4.6, Leading zero omitted, Abs format (unit mm)*
G04 Created by KiCad (PCBNEW (5.1.9)-1) date 2021-04-03 11:00:13*
%MOMM*%
%LPD*%
G01*
G04 APERTURE LIST*
G04 #@! TA.AperFunction,ComponentPad*
%ADD10C,6.400000*%
G04 #@! TD*
G04 #@! TA.AperFunction,ComponentPad*
%ADD11C,4.064000*%
G04 #@! TD*
G04 #@! TA.AperFunction,ComponentPad*
%ADD12C,3.100000*%
G04 #@! TD*
G04 #@! TA.AperFunction,ComponentPad*
%ADD13C,2.100000*%
G04 #@! TD*
G04 #@! TA.AperFunction,ComponentPad*
%ADD14C,2.400000*%
G04 #@! TD*
G04 #@! TA.AperFunction,ComponentPad*
%ADD15R,2.400000X2.400000*%
G04 #@! TD*
G04 #@! TA.AperFunction,ComponentPad*
%ADD16C,2.000000*%
G04 #@! TD*
G04 #@! TA.AperFunction,Conductor*
%ADD17C,2.000000*%
G04 #@! TD*
G04 #@! TA.AperFunction,Conductor*
%ADD18C,0.254000*%
G04 #@! TD*
G04 #@! TA.AperFunction,Conductor*
%ADD19C,0.100000*%
G04 #@! TD*
G04 APERTURE END LIST*
D10*
X130000000Y-135000000D03*
X130000000Y-70000000D03*
X72500000Y-135000000D03*
X72500000Y-70000000D03*
D11*
X108575000Y-123140000D03*
X99050000Y-123140000D03*
X89525000Y-123140000D03*
X80000000Y-123140000D03*
X108575000Y-82500000D03*
X99050000Y-82500000D03*
X89525000Y-82500000D03*
X80000000Y-82500000D03*
G04 #@! TA.AperFunction,ComponentPad*
G36*
G01*
X62699999Y-117950000D02*
X65300001Y-117950000D01*
G75*
G02*
X65550000Y-118199999I0J-249999D01*
G01*
X65550000Y-120800001D01*
G75*
G02*
X65300001Y-121050000I-249999J0D01*
G01*
X62699999Y-121050000D01*
G75*
G02*
X62450000Y-120800001I0J249999D01*
G01*
X62450000Y-118199999D01*
G75*
G02*
X62699999Y-117950000I249999J0D01*
G01*
G37*
G04 #@! TD.AperFunction*
D12*
X64000000Y-125500000D03*
X64000000Y-131500000D03*
D13*
X139500000Y-107450000D03*
X139500000Y-102850000D03*
G04 #@! TA.AperFunction,ComponentPad*
G36*
G01*
X138699999Y-97200000D02*
X140300001Y-97200000D01*
G75*
G02*
X140550000Y-97449999I0J-249999D01*
G01*
X140550000Y-99050001D01*
G75*
G02*
X140300001Y-99300000I-249999J0D01*
G01*
X138699999Y-99300000D01*
G75*
G02*
X138450000Y-99050001I0J249999D01*
G01*
X138450000Y-97449999D01*
G75*
G02*
X138699999Y-97200000I249999J0D01*
G01*
G37*
G04 #@! TD.AperFunction*
D14*
X122000000Y-122240000D03*
D15*
X132900000Y-122240000D03*
X122000000Y-117160000D03*
D14*
X132900000Y-117160000D03*
X132900000Y-112080000D03*
D15*
X122000000Y-112080000D03*
D14*
X122000000Y-107000000D03*
D15*
X132900000Y-107000000D03*
D14*
X122000000Y-98160000D03*
D15*
X132900000Y-98160000D03*
X122000000Y-93080000D03*
D14*
X132900000Y-93080000D03*
X132900000Y-88000000D03*
D15*
X122000000Y-88000000D03*
D14*
X122000000Y-82920000D03*
D15*
X132900000Y-82920000D03*
D16*
X69000000Y-93000000D03*
X64000000Y-93000000D03*
X64000000Y-108000000D03*
X69000000Y-108000000D03*
G04 #@! TA.AperFunction,ComponentPad*
G36*
G01*
X65300001Y-84300000D02*
X62699999Y-84300000D01*
G75*
G02*
X62450000Y-84050001I0J249999D01*
G01*
X62450000Y-81449999D01*
G75*
G02*
X62699999Y-81200000I249999J0D01*
G01*
X65300001Y-81200000D01*
G75*
G02*
X65550000Y-81449999I0J-249999D01*
G01*
X65550000Y-84050001D01*
G75*
G02*
X65300001Y-84300000I-249999J0D01*
G01*
G37*
G04 #@! TD.AperFunction*
D12*
X64000000Y-76750000D03*
D17*
X69000000Y-131500000D02*
X72500000Y-135000000D01*
X64000000Y-131500000D02*
X69000000Y-131500000D01*
X72500000Y-70000000D02*
X130000000Y-70000000D01*
X73000001Y-70500001D02*
X72500000Y-70000000D01*
X73000001Y-134499999D02*
X73000001Y-70500001D01*
X72500000Y-135000000D02*
X73000001Y-134499999D01*
X72500000Y-135000000D02*
X130000000Y-135000000D01*
D18*
X135873000Y-100750000D02*
X135875440Y-100774776D01*
X135882667Y-100798601D01*
X135894403Y-100820557D01*
X135910197Y-100839803D01*
X135929443Y-100855597D01*
X135951399Y-100867333D01*
X135975224Y-100874560D01*
X136000000Y-100877000D01*
X141840000Y-100877000D01*
X141840001Y-104623000D01*
X136000000Y-104623000D01*
X135975224Y-104625440D01*
X135951399Y-104632667D01*
X135929443Y-104644403D01*
X135910197Y-104660197D01*
X135894403Y-104679443D01*
X135882667Y-104701399D01*
X135875440Y-104725224D01*
X135873000Y-104750000D01*
X135873000Y-124373000D01*
X129627000Y-124373000D01*
X129627000Y-123440000D01*
X131061928Y-123440000D01*
X131074188Y-123564482D01*
X131110498Y-123684180D01*
X131169463Y-123794494D01*
X131248815Y-123891185D01*
X131345506Y-123970537D01*
X131455820Y-124029502D01*
X131575518Y-124065812D01*
X131700000Y-124078072D01*
X132614250Y-124075000D01*
X132773000Y-123916250D01*
X132773000Y-122367000D01*
X133027000Y-122367000D01*
X133027000Y-123916250D01*
X133185750Y-124075000D01*
X134100000Y-124078072D01*
X134224482Y-124065812D01*
X134344180Y-124029502D01*
X134454494Y-123970537D01*
X134551185Y-123891185D01*
X134630537Y-123794494D01*
X134689502Y-123684180D01*
X134725812Y-123564482D01*
X134738072Y-123440000D01*
X134735000Y-122525750D01*
X134576250Y-122367000D01*
X133027000Y-122367000D01*
X132773000Y-122367000D01*
X131223750Y-122367000D01*
X131065000Y-122525750D01*
X131061928Y-123440000D01*
X129627000Y-123440000D01*
X129627000Y-121040000D01*
X131061928Y-121040000D01*
X131065000Y-121954250D01*
X131223750Y-122113000D01*
X132773000Y-122113000D01*
X132773000Y-120563750D01*
X133027000Y-120563750D01*
X133027000Y-122113000D01*
X134576250Y-122113000D01*
X134735000Y-121954250D01*
X134738072Y-121040000D01*
X134725812Y-120915518D01*
X134689502Y-120795820D01*
X134630537Y-120685506D01*
X134551185Y-120588815D01*
X134454494Y-120509463D01*
X134344180Y-120450498D01*
X134224482Y-120414188D01*
X134100000Y-120401928D01*
X133185750Y-120405000D01*
X133027000Y-120563750D01*
X132773000Y-120563750D01*
X132614250Y-120405000D01*
X131700000Y-120401928D01*
X131575518Y-120414188D01*
X131455820Y-120450498D01*
X131345506Y-120509463D01*
X131248815Y-120588815D01*
X131169463Y-120685506D01*
X131110498Y-120795820D01*
X131074188Y-120915518D01*
X131061928Y-121040000D01*
X129627000Y-121040000D01*
X129627000Y-116979268D01*
X131065000Y-116979268D01*
X131065000Y-117340732D01*
X131135518Y-117695250D01*
X131273844Y-118029199D01*
X131474662Y-118329744D01*
X131730256Y-118585338D01*
X132030801Y-118786156D01*
X132364750Y-118924482D01*
X132719268Y-118995000D01*
X133080732Y-118995000D01*
X133435250Y-118924482D01*
X133769199Y-118786156D01*
X134069744Y-118585338D01*
X134325338Y-118329744D01*
X134526156Y-118029199D01*
X134664482Y-117695250D01*
X134735000Y-117340732D01*
X134735000Y-116979268D01*
X134664482Y-116624750D01*
X134526156Y-116290801D01*
X134325338Y-115990256D01*
X134069744Y-115734662D01*
X133769199Y-115533844D01*
X133435250Y-115395518D01*
X133080732Y-115325000D01*
X132719268Y-115325000D01*
X132364750Y-115395518D01*
X132030801Y-115533844D01*
X131730256Y-115734662D01*
X131474662Y-115990256D01*
X131273844Y-116290801D01*
X131135518Y-116624750D01*
X131065000Y-116979268D01*
X129627000Y-116979268D01*
X129627000Y-111899268D01*
X131065000Y-111899268D01*
X131065000Y-112260732D01*
X131135518Y-112615250D01*
X131273844Y-112949199D01*
X131474662Y-113249744D01*
X131730256Y-113505338D01*
X132030801Y-113706156D01*
X132364750Y-113844482D01*
X132719268Y-113915000D01*
X133080732Y-113915000D01*
X133435250Y-113844482D01*
X133769199Y-113706156D01*
X134069744Y-113505338D01*
X134325338Y-113249744D01*
X134526156Y-112949199D01*
X134664482Y-112615250D01*
X134735000Y-112260732D01*
X134735000Y-111899268D01*
X134664482Y-111544750D01*
X134526156Y-111210801D01*
X134325338Y-110910256D01*
X134069744Y-110654662D01*
X133769199Y-110453844D01*
X133435250Y-110315518D01*
X133080732Y-110245000D01*
X132719268Y-110245000D01*
X132364750Y-110315518D01*
X132030801Y-110453844D01*
X131730256Y-110654662D01*
X131474662Y-110910256D01*
X131273844Y-111210801D01*
X131135518Y-111544750D01*
X131065000Y-111899268D01*
X129627000Y-111899268D01*
X129627000Y-108200000D01*
X131061928Y-108200000D01*
X131074188Y-108324482D01*
X131110498Y-108444180D01*
X131169463Y-108554494D01*
X131248815Y-108651185D01*
X131345506Y-108730537D01*
X131455820Y-108789502D01*
X131575518Y-108825812D01*
X131700000Y-108838072D01*
X132614250Y-108835000D01*
X132773000Y-108676250D01*
X132773000Y-107127000D01*
X133027000Y-107127000D01*
X133027000Y-108676250D01*
X133185750Y-108835000D01*
X134100000Y-108838072D01*
X134224482Y-108825812D01*
X134344180Y-108789502D01*
X134454494Y-108730537D01*
X134551185Y-108651185D01*
X134630537Y-108554494D01*
X134689502Y-108444180D01*
X134725812Y-108324482D01*
X134738072Y-108200000D01*
X134735000Y-107285750D01*
X134576250Y-107127000D01*
X133027000Y-107127000D01*
X132773000Y-107127000D01*
X131223750Y-107127000D01*
X131065000Y-107285750D01*
X131061928Y-108200000D01*
X129627000Y-108200000D01*
X129627000Y-105800000D01*
X131061928Y-105800000D01*
X131065000Y-106714250D01*
X131223750Y-106873000D01*
X132773000Y-106873000D01*
X132773000Y-105323750D01*
X133027000Y-105323750D01*
X133027000Y-106873000D01*
X134576250Y-106873000D01*
X134735000Y-106714250D01*
X134738072Y-105800000D01*
X134725812Y-105675518D01*
X134689502Y-105555820D01*
X134630537Y-105445506D01*
X134551185Y-105348815D01*
X134454494Y-105269463D01*
X134344180Y-105210498D01*
X134224482Y-105174188D01*
X134100000Y-105161928D01*
X133185750Y-105165000D01*
X133027000Y-105323750D01*
X132773000Y-105323750D01*
X132614250Y-105165000D01*
X131700000Y-105161928D01*
X131575518Y-105174188D01*
X131455820Y-105210498D01*
X131345506Y-105269463D01*
X131248815Y-105348815D01*
X131169463Y-105445506D01*
X131110498Y-105555820D01*
X131074188Y-105675518D01*
X131061928Y-105800000D01*
X129627000Y-105800000D01*
X129627000Y-104021066D01*
X138508539Y-104021066D01*
X138610339Y-104290579D01*
X138908477Y-104436463D01*
X139229346Y-104521380D01*
X139560617Y-104542066D01*
X139889557Y-104497728D01*
X140203527Y-104390069D01*
X140389661Y-104290579D01*
X140491461Y-104021066D01*
X139500000Y-103029605D01*
X138508539Y-104021066D01*
X129627000Y-104021066D01*
X129627000Y-102910617D01*
X137807934Y-102910617D01*
X137852272Y-103239557D01*
X137959931Y-103553527D01*
X138059421Y-103739661D01*
X138328934Y-103841461D01*
X139320395Y-102850000D01*
X139679605Y-102850000D01*
X140671066Y-103841461D01*
X140940579Y-103739661D01*
X141086463Y-103441523D01*
X141171380Y-103120654D01*
X141192066Y-102789383D01*
X141147728Y-102460443D01*
X141040069Y-102146473D01*
X140940579Y-101960339D01*
X140671066Y-101858539D01*
X139679605Y-102850000D01*
X139320395Y-102850000D01*
X138328934Y-101858539D01*
X138059421Y-101960339D01*
X137913537Y-102258477D01*
X137828620Y-102579346D01*
X137807934Y-102910617D01*
X129627000Y-102910617D01*
X129627000Y-101678934D01*
X138508539Y-101678934D01*
X139500000Y-102670395D01*
X140491461Y-101678934D01*
X140389661Y-101409421D01*
X140091523Y-101263537D01*
X139770654Y-101178620D01*
X139439383Y-101157934D01*
X139110443Y-101202272D01*
X138796473Y-101309931D01*
X138610339Y-101409421D01*
X138508539Y-101678934D01*
X129627000Y-101678934D01*
X129627000Y-96960000D01*
X131061928Y-96960000D01*
X131061928Y-99360000D01*
X131074188Y-99484482D01*
X131110498Y-99604180D01*
X131169463Y-99714494D01*
X131248815Y-99811185D01*
X131345506Y-99890537D01*
X131455820Y-99949502D01*
X131575518Y-99985812D01*
X131700000Y-99998072D01*
X134100000Y-99998072D01*
X134224482Y-99985812D01*
X134344180Y-99949502D01*
X134454494Y-99890537D01*
X134551185Y-99811185D01*
X134630537Y-99714494D01*
X134689502Y-99604180D01*
X134725812Y-99484482D01*
X134738072Y-99360000D01*
X134738072Y-96960000D01*
X134725812Y-96835518D01*
X134689502Y-96715820D01*
X134630537Y-96605506D01*
X134551185Y-96508815D01*
X134454494Y-96429463D01*
X134344180Y-96370498D01*
X134224482Y-96334188D01*
X134100000Y-96321928D01*
X131700000Y-96321928D01*
X131575518Y-96334188D01*
X131455820Y-96370498D01*
X131345506Y-96429463D01*
X131248815Y-96508815D01*
X131169463Y-96605506D01*
X131110498Y-96715820D01*
X131074188Y-96835518D01*
X131061928Y-96960000D01*
X129627000Y-96960000D01*
X129627000Y-94357980D01*
X131801626Y-94357980D01*
X131921514Y-94642836D01*
X132245210Y-94803699D01*
X132594069Y-94898322D01*
X132954684Y-94923067D01*
X133313198Y-94876985D01*
X133655833Y-94761846D01*
X133878486Y-94642836D01*
X133998374Y-94357980D01*
X132900000Y-93259605D01*
X131801626Y-94357980D01*
X129627000Y-94357980D01*
X129627000Y-93134684D01*
X131056933Y-93134684D01*
X131103015Y-93493198D01*
X131218154Y-93835833D01*
X131337164Y-94058486D01*
X131622020Y-94178374D01*
X132720395Y-93080000D01*
X133079605Y-93080000D01*
X134177980Y-94178374D01*
X134462836Y-94058486D01*
X134623699Y-93734790D01*
X134718322Y-93385931D01*
X134743067Y-93025316D01*
X134696985Y-92666802D01*
X134581846Y-92324167D01*
X134462836Y-92101514D01*
X134177980Y-91981626D01*
X133079605Y-93080000D01*
X132720395Y-93080000D01*
X131622020Y-91981626D01*
X131337164Y-92101514D01*
X131176301Y-92425210D01*
X131081678Y-92774069D01*
X131056933Y-93134684D01*
X129627000Y-93134684D01*
X129627000Y-91802020D01*
X131801626Y-91802020D01*
X132900000Y-92900395D01*
X133998374Y-91802020D01*
X133878486Y-91517164D01*
X133554790Y-91356301D01*
X133205931Y-91261678D01*
X132845316Y-91236933D01*
X132486802Y-91283015D01*
X132144167Y-91398154D01*
X131921514Y-91517164D01*
X131801626Y-91802020D01*
X129627000Y-91802020D01*
X129627000Y-89277980D01*
X131801626Y-89277980D01*
X131921514Y-89562836D01*
X132245210Y-89723699D01*
X132594069Y-89818322D01*
X132954684Y-89843067D01*
X133313198Y-89796985D01*
X133655833Y-89681846D01*
X133878486Y-89562836D01*
X133998374Y-89277980D01*
X132900000Y-88179605D01*
X131801626Y-89277980D01*
X129627000Y-89277980D01*
X129627000Y-88054684D01*
X131056933Y-88054684D01*
X131103015Y-88413198D01*
X131218154Y-88755833D01*
X131337164Y-88978486D01*
X131622020Y-89098374D01*
X132720395Y-88000000D01*
X133079605Y-88000000D01*
X134177980Y-89098374D01*
X134462836Y-88978486D01*
X134623699Y-88654790D01*
X134718322Y-88305931D01*
X134743067Y-87945316D01*
X134696985Y-87586802D01*
X134581846Y-87244167D01*
X134462836Y-87021514D01*
X134177980Y-86901626D01*
X133079605Y-88000000D01*
X132720395Y-88000000D01*
X131622020Y-86901626D01*
X131337164Y-87021514D01*
X131176301Y-87345210D01*
X131081678Y-87694069D01*
X131056933Y-88054684D01*
X129627000Y-88054684D01*
X129627000Y-86722020D01*
X131801626Y-86722020D01*
X132900000Y-87820395D01*
X133998374Y-86722020D01*
X133878486Y-86437164D01*
X133554790Y-86276301D01*
X133205931Y-86181678D01*
X132845316Y-86156933D01*
X132486802Y-86203015D01*
X132144167Y-86318154D01*
X131921514Y-86437164D01*
X131801626Y-86722020D01*
X129627000Y-86722020D01*
X129627000Y-86127000D01*
X135873000Y-86127000D01*
X135873000Y-100750000D01*
G04 #@! TA.AperFunction,Conductor*
D19*
G36*
X135873000Y-100750000D02*
G01*
X135875440Y-100774776D01*
X135882667Y-100798601D01*
X135894403Y-100820557D01*
X135910197Y-100839803D01*
X135929443Y-100855597D01*
X135951399Y-100867333D01*
X135975224Y-100874560D01*
X136000000Y-100877000D01*
X141840000Y-100877000D01*
X141840001Y-104623000D01*
X136000000Y-104623000D01*
X135975224Y-104625440D01*
X135951399Y-104632667D01*
X135929443Y-104644403D01*
X135910197Y-104660197D01*
X135894403Y-104679443D01*
X135882667Y-104701399D01*
X135875440Y-104725224D01*
X135873000Y-104750000D01*
X135873000Y-124373000D01*
X129627000Y-124373000D01*
X129627000Y-123440000D01*
X131061928Y-123440000D01*
X131074188Y-123564482D01*
X131110498Y-123684180D01*
X131169463Y-123794494D01*
X131248815Y-123891185D01*
X131345506Y-123970537D01*
X131455820Y-124029502D01*
X131575518Y-124065812D01*
X131700000Y-124078072D01*
X132614250Y-124075000D01*
X132773000Y-123916250D01*
X132773000Y-122367000D01*
X133027000Y-122367000D01*
X133027000Y-123916250D01*
X133185750Y-124075000D01*
X134100000Y-124078072D01*
X134224482Y-124065812D01*
X134344180Y-124029502D01*
X134454494Y-123970537D01*
X134551185Y-123891185D01*
X134630537Y-123794494D01*
X134689502Y-123684180D01*
X134725812Y-123564482D01*
X134738072Y-123440000D01*
X134735000Y-122525750D01*
X134576250Y-122367000D01*
X133027000Y-122367000D01*
X132773000Y-122367000D01*
X131223750Y-122367000D01*
X131065000Y-122525750D01*
X131061928Y-123440000D01*
X129627000Y-123440000D01*
X129627000Y-121040000D01*
X131061928Y-121040000D01*
X131065000Y-121954250D01*
X131223750Y-122113000D01*
X132773000Y-122113000D01*
X132773000Y-120563750D01*
X133027000Y-120563750D01*
X133027000Y-122113000D01*
X134576250Y-122113000D01*
X134735000Y-121954250D01*
X134738072Y-121040000D01*
X134725812Y-120915518D01*
X134689502Y-120795820D01*
X134630537Y-120685506D01*
X134551185Y-120588815D01*
X134454494Y-120509463D01*
X134344180Y-120450498D01*
X134224482Y-120414188D01*
X134100000Y-120401928D01*
X133185750Y-120405000D01*
X133027000Y-120563750D01*
X132773000Y-120563750D01*
X132614250Y-120405000D01*
X131700000Y-120401928D01*
X131575518Y-120414188D01*
X131455820Y-120450498D01*
X131345506Y-120509463D01*
X131248815Y-120588815D01*
X131169463Y-120685506D01*
X131110498Y-120795820D01*
X131074188Y-120915518D01*
X131061928Y-121040000D01*
X129627000Y-121040000D01*
X129627000Y-116979268D01*
X131065000Y-116979268D01*
X131065000Y-117340732D01*
X131135518Y-117695250D01*
X131273844Y-118029199D01*
X131474662Y-118329744D01*
X131730256Y-118585338D01*
X132030801Y-118786156D01*
X132364750Y-118924482D01*
X132719268Y-118995000D01*
X133080732Y-118995000D01*
X133435250Y-118924482D01*
X133769199Y-118786156D01*
X134069744Y-118585338D01*
X134325338Y-118329744D01*
X134526156Y-118029199D01*
X134664482Y-117695250D01*
X134735000Y-117340732D01*
X134735000Y-116979268D01*
X134664482Y-116624750D01*
X134526156Y-116290801D01*
X134325338Y-115990256D01*
X134069744Y-115734662D01*
X133769199Y-115533844D01*
X133435250Y-115395518D01*
X133080732Y-115325000D01*
X132719268Y-115325000D01*
X132364750Y-115395518D01*
X132030801Y-115533844D01*
X131730256Y-115734662D01*
X131474662Y-115990256D01*
X131273844Y-116290801D01*
X131135518Y-116624750D01*
X131065000Y-116979268D01*
X129627000Y-116979268D01*
X129627000Y-111899268D01*
X131065000Y-111899268D01*
X131065000Y-112260732D01*
X131135518Y-112615250D01*
X131273844Y-112949199D01*
X131474662Y-113249744D01*
X131730256Y-113505338D01*
X132030801Y-113706156D01*
X132364750Y-113844482D01*
X132719268Y-113915000D01*
X133080732Y-113915000D01*
X133435250Y-113844482D01*
X133769199Y-113706156D01*
X134069744Y-113505338D01*
X134325338Y-113249744D01*
X134526156Y-112949199D01*
X134664482Y-112615250D01*
X134735000Y-112260732D01*
X134735000Y-111899268D01*
X134664482Y-111544750D01*
X134526156Y-111210801D01*
X134325338Y-110910256D01*
X134069744Y-110654662D01*
X133769199Y-110453844D01*
X133435250Y-110315518D01*
X133080732Y-110245000D01*
X132719268Y-110245000D01*
X132364750Y-110315518D01*
X132030801Y-110453844D01*
X131730256Y-110654662D01*
X131474662Y-110910256D01*
X131273844Y-111210801D01*
X131135518Y-111544750D01*
X131065000Y-111899268D01*
X129627000Y-111899268D01*
X129627000Y-108200000D01*
X131061928Y-108200000D01*
X131074188Y-108324482D01*
X131110498Y-108444180D01*
X131169463Y-108554494D01*
X131248815Y-108651185D01*
X131345506Y-108730537D01*
X131455820Y-108789502D01*
X131575518Y-108825812D01*
X131700000Y-108838072D01*
X132614250Y-108835000D01*
X132773000Y-108676250D01*
X132773000Y-107127000D01*
X133027000Y-107127000D01*
X133027000Y-108676250D01*
X133185750Y-108835000D01*
X134100000Y-108838072D01*
X134224482Y-108825812D01*
X134344180Y-108789502D01*
X134454494Y-108730537D01*
X134551185Y-108651185D01*
X134630537Y-108554494D01*
X134689502Y-108444180D01*
X134725812Y-108324482D01*
X134738072Y-108200000D01*
X134735000Y-107285750D01*
X134576250Y-107127000D01*
X133027000Y-107127000D01*
X132773000Y-107127000D01*
X131223750Y-107127000D01*
X131065000Y-107285750D01*
X131061928Y-108200000D01*
X129627000Y-108200000D01*
X129627000Y-105800000D01*
X131061928Y-105800000D01*
X131065000Y-106714250D01*
X131223750Y-106873000D01*
X132773000Y-106873000D01*
X132773000Y-105323750D01*
X133027000Y-105323750D01*
X133027000Y-106873000D01*
X134576250Y-106873000D01*
X134735000Y-106714250D01*
X134738072Y-105800000D01*
X134725812Y-105675518D01*
X134689502Y-105555820D01*
X134630537Y-105445506D01*
X134551185Y-105348815D01*
X134454494Y-105269463D01*
X134344180Y-105210498D01*
X134224482Y-105174188D01*
X134100000Y-105161928D01*
X133185750Y-105165000D01*
X133027000Y-105323750D01*
X132773000Y-105323750D01*
X132614250Y-105165000D01*
X131700000Y-105161928D01*
X131575518Y-105174188D01*
X131455820Y-105210498D01*
X131345506Y-105269463D01*
X131248815Y-105348815D01*
X131169463Y-105445506D01*
X131110498Y-105555820D01*
X131074188Y-105675518D01*
X131061928Y-105800000D01*
X129627000Y-105800000D01*
X129627000Y-104021066D01*
X138508539Y-104021066D01*
X138610339Y-104290579D01*
X138908477Y-104436463D01*
X139229346Y-104521380D01*
X139560617Y-104542066D01*
X139889557Y-104497728D01*
X140203527Y-104390069D01*
X140389661Y-104290579D01*
X140491461Y-104021066D01*
X139500000Y-103029605D01*
X138508539Y-104021066D01*
X129627000Y-104021066D01*
X129627000Y-102910617D01*
X137807934Y-102910617D01*
X137852272Y-103239557D01*
X137959931Y-103553527D01*
X138059421Y-103739661D01*
X138328934Y-103841461D01*
X139320395Y-102850000D01*
X139679605Y-102850000D01*
X140671066Y-103841461D01*
X140940579Y-103739661D01*
X141086463Y-103441523D01*
X141171380Y-103120654D01*
X141192066Y-102789383D01*
X141147728Y-102460443D01*
X141040069Y-102146473D01*
X140940579Y-101960339D01*
X140671066Y-101858539D01*
X139679605Y-102850000D01*
X139320395Y-102850000D01*
X138328934Y-101858539D01*
X138059421Y-101960339D01*
X137913537Y-102258477D01*
X137828620Y-102579346D01*
X137807934Y-102910617D01*
X129627000Y-102910617D01*
X129627000Y-101678934D01*
X138508539Y-101678934D01*
X139500000Y-102670395D01*
X140491461Y-101678934D01*
X140389661Y-101409421D01*
X140091523Y-101263537D01*
X139770654Y-101178620D01*
X139439383Y-101157934D01*
X139110443Y-101202272D01*
X138796473Y-101309931D01*
X138610339Y-101409421D01*
X138508539Y-101678934D01*
X129627000Y-101678934D01*
X129627000Y-96960000D01*
X131061928Y-96960000D01*
X131061928Y-99360000D01*
X131074188Y-99484482D01*
X131110498Y-99604180D01*
X131169463Y-99714494D01*
X131248815Y-99811185D01*
X131345506Y-99890537D01*
X131455820Y-99949502D01*
X131575518Y-99985812D01*
X131700000Y-99998072D01*
X134100000Y-99998072D01*
X134224482Y-99985812D01*
X134344180Y-99949502D01*
X134454494Y-99890537D01*
X134551185Y-99811185D01*
X134630537Y-99714494D01*
X134689502Y-99604180D01*
X134725812Y-99484482D01*
X134738072Y-99360000D01*
X134738072Y-96960000D01*
X134725812Y-96835518D01*
X134689502Y-96715820D01*
X134630537Y-96605506D01*
X134551185Y-96508815D01*
X134454494Y-96429463D01*
X134344180Y-96370498D01*
X134224482Y-96334188D01*
X134100000Y-96321928D01*
X131700000Y-96321928D01*
X131575518Y-96334188D01*
X131455820Y-96370498D01*
X131345506Y-96429463D01*
X131248815Y-96508815D01*
X131169463Y-96605506D01*
X131110498Y-96715820D01*
X131074188Y-96835518D01*
X131061928Y-96960000D01*
X129627000Y-96960000D01*
X129627000Y-94357980D01*
X131801626Y-94357980D01*
X131921514Y-94642836D01*
X132245210Y-94803699D01*
X132594069Y-94898322D01*
X132954684Y-94923067D01*
X133313198Y-94876985D01*
X133655833Y-94761846D01*
X133878486Y-94642836D01*
X133998374Y-94357980D01*
X132900000Y-93259605D01*
X131801626Y-94357980D01*
X129627000Y-94357980D01*
X129627000Y-93134684D01*
X131056933Y-93134684D01*
X131103015Y-93493198D01*
X131218154Y-93835833D01*
X131337164Y-94058486D01*
X131622020Y-94178374D01*
X132720395Y-93080000D01*
X133079605Y-93080000D01*
X134177980Y-94178374D01*
X134462836Y-94058486D01*
X134623699Y-93734790D01*
X134718322Y-93385931D01*
X134743067Y-93025316D01*
X134696985Y-92666802D01*
X134581846Y-92324167D01*
X134462836Y-92101514D01*
X134177980Y-91981626D01*
X133079605Y-93080000D01*
X132720395Y-93080000D01*
X131622020Y-91981626D01*
X131337164Y-92101514D01*
X131176301Y-92425210D01*
X131081678Y-92774069D01*
X131056933Y-93134684D01*
X129627000Y-93134684D01*
X129627000Y-91802020D01*
X131801626Y-91802020D01*
X132900000Y-92900395D01*
X133998374Y-91802020D01*
X133878486Y-91517164D01*
X133554790Y-91356301D01*
X133205931Y-91261678D01*
X132845316Y-91236933D01*
X132486802Y-91283015D01*
X132144167Y-91398154D01*
X131921514Y-91517164D01*
X131801626Y-91802020D01*
X129627000Y-91802020D01*
X129627000Y-89277980D01*
X131801626Y-89277980D01*
X131921514Y-89562836D01*
X132245210Y-89723699D01*
X132594069Y-89818322D01*
X132954684Y-89843067D01*
X133313198Y-89796985D01*
X133655833Y-89681846D01*
X133878486Y-89562836D01*
X133998374Y-89277980D01*
X132900000Y-88179605D01*
X131801626Y-89277980D01*
X129627000Y-89277980D01*
X129627000Y-88054684D01*
X131056933Y-88054684D01*
X131103015Y-88413198D01*
X131218154Y-88755833D01*
X131337164Y-88978486D01*
X131622020Y-89098374D01*
X132720395Y-88000000D01*
X133079605Y-88000000D01*
X134177980Y-89098374D01*
X134462836Y-88978486D01*
X134623699Y-88654790D01*
X134718322Y-88305931D01*
X134743067Y-87945316D01*
X134696985Y-87586802D01*
X134581846Y-87244167D01*
X134462836Y-87021514D01*
X134177980Y-86901626D01*
X133079605Y-88000000D01*
X132720395Y-88000000D01*
X131622020Y-86901626D01*
X131337164Y-87021514D01*
X131176301Y-87345210D01*
X131081678Y-87694069D01*
X131056933Y-88054684D01*
X129627000Y-88054684D01*
X129627000Y-86722020D01*
X131801626Y-86722020D01*
X132900000Y-87820395D01*
X133998374Y-86722020D01*
X133878486Y-86437164D01*
X133554790Y-86276301D01*
X133205931Y-86181678D01*
X132845316Y-86156933D01*
X132486802Y-86203015D01*
X132144167Y-86318154D01*
X131921514Y-86437164D01*
X131801626Y-86722020D01*
X129627000Y-86722020D01*
X129627000Y-86127000D01*
X135873000Y-86127000D01*
X135873000Y-100750000D01*
G37*
G04 #@! TD.AperFunction*
M02*
