M48
; DRILL file {KiCad (5.1.9)-1} date 04/03/21 11:00:16
; FORMAT={-:-/ absolute / metric / decimal}
; #@! TF.CreationDate,2021-04-03T11:00:16-07:00
; #@! TF.GenerationSoftware,Kicad,Pcbnew,(5.1.9)-1
FMAT,2
METRIC
T1C1.100
T2C1.200
T3C2.032
T4C2.100
T5C3.200
%
G90
G05
T1
X139.5Y-98.25
X139.5Y-102.85
X139.5Y-107.45
T2
X64.0Y-93.0
X64.0Y-108.0
X69.0Y-93.0
X69.0Y-108.0
X122.0Y-82.92
X122.0Y-88.0
X122.0Y-93.08
X122.0Y-98.16
X122.0Y-107.0
X122.0Y-112.08
X122.0Y-117.16
X122.0Y-122.24
X132.9Y-82.92
X132.9Y-88.0
X132.9Y-93.08
X132.9Y-98.16
X132.9Y-107.0
X132.9Y-112.08
X132.9Y-117.16
X132.9Y-122.24
T3
X80.0Y-82.5
X80.0Y-123.14
X89.525Y-82.5
X89.525Y-123.14
X99.05Y-82.5
X99.05Y-123.14
X108.575Y-82.5
X108.575Y-123.14
T4
X64.0Y-76.75
X64.0Y-82.75
X64.0Y-119.5
X64.0Y-125.5
X64.0Y-131.5
T5
X72.5Y-70.0
X72.5Y-135.0
X130.0Y-70.0
X130.0Y-135.0
T0
M30
